<svg width="279" height="100" viewBox="0 0 279 100" fill="none" xmlns="http://www.w3.org/2000/svg">
<rect width="279" height="100" rx="21.0676" fill="#E4AAAA"/>
<path d="M42.9651 38.9115V45.2169H53.1338V51.0783H42.9651V57.9166H54.4659V64H35.372V32.828H54.4659V38.9115H42.9651ZM94.6971 32.828V64H87.1039V45.3057L80.1324 64H74.0046L66.9887 45.2613V64H59.3955V32.828H68.3652L77.1129 54.4086L85.7718 32.828H94.6971ZM128.439 48.0144C130.245 48.3992 131.696 49.3021 132.791 50.7231C133.886 52.1144 134.434 53.713 134.434 55.5187C134.434 58.1238 133.516 60.196 131.681 61.7354C129.875 63.2451 127.344 64 124.088 64H109.567V32.828H123.599C126.767 32.828 129.239 33.5533 131.015 35.0039C132.821 36.4544 133.723 38.423 133.723 40.9097C133.723 42.7451 133.235 44.2696 132.258 45.4833C131.311 46.6971 130.038 47.5407 128.439 48.0144ZM117.161 45.4389H122.134C123.377 45.4389 124.324 45.1725 124.976 44.6396C125.657 44.0772 125.997 43.2631 125.997 42.1974C125.997 41.1317 125.657 40.3176 124.976 39.7551C124.324 39.1927 123.377 38.9115 122.134 38.9115H117.161V45.4389ZM122.755 57.8722C124.028 57.8722 125.005 57.591 125.686 57.0285C126.397 56.4364 126.752 55.5928 126.752 54.4974C126.752 53.4021 126.382 52.5436 125.642 51.922C124.931 51.3003 123.94 50.9895 122.667 50.9895H117.161V57.8722H122.755ZM154.735 64L148.252 52.2328H146.431V64H138.838V32.828H151.582C154.039 32.828 156.126 33.2573 157.843 34.1158C159.59 34.9743 160.892 36.1584 161.751 37.6681C162.609 39.1483 163.038 40.8061 163.038 42.6414C163.038 44.7136 162.446 46.5638 161.262 48.192C160.108 49.8202 158.391 50.9747 156.111 51.6556L163.305 64H154.735ZM146.431 46.8599H151.138C152.529 46.8599 153.565 46.5194 154.246 45.8386C154.957 45.1577 155.312 44.1956 155.312 42.9523C155.312 41.7682 154.957 40.8357 154.246 40.1548C153.565 39.4739 152.529 39.1335 151.138 39.1335H146.431V46.8599ZM175.398 38.9115V45.2169H185.567V51.0783H175.398V57.9166H186.899V64H167.805V32.828H186.899V38.9115H175.398ZM221.091 32.828L210.034 64H200.532L189.475 32.828H197.557L205.283 56.3624L213.054 32.828H221.091ZM231.858 38.9115V45.2169H242.026V51.0783H231.858V57.9166H243.358V64H224.265V32.828H243.358V38.9115H231.858Z" fill="black"/>
<path d="M32.6189 68.4404H245.534V70.6607H32.6189V68.4404Z" fill="black"/>
</svg>
