<svg width="60" height="60" viewBox="0 0 60 60" fill="none" xmlns="http://www.w3.org/2000/svg">
<circle cx="30" cy="30" r="28.5" fill="#E4AAAA" stroke="#820000" stroke-width="3"/>
<path d="M21.3101 31.3039L22.0593 31.7369L21.3101 32.1698L15.683 35.4213L19.6496 42.2894L25.2803 39.0434L26.0296 38.6114L26.03 39.4763L26.0332 45.9737H33.9668L33.97 39.4763L33.9704 38.6114L34.7197 39.0434L40.3503 42.2894L44.317 35.4213L38.6898 32.1698L37.9406 31.7369L38.6898 31.3039L44.317 28.0524L40.3503 21.1843L34.7197 24.4303L33.9704 24.8623L33.97 23.9974L33.9668 17.5H26.0332L26.03 23.9974L26.0296 24.8622L25.2803 24.4303L19.6496 21.1843L15.683 28.0525L21.3101 31.3039Z" fill="#EA8324" stroke="black"/>
</svg>
