<svg width="60" height="60" viewBox="0 0 60 60" fill="none" xmlns="http://www.w3.org/2000/svg">
<circle cx="30" cy="30" r="28.5" fill="#E4AAAA" stroke="#820000" stroke-width="3"/>
<path d="M24.6852 29.4667V28.9667H24.1852H21.4296H20.9296V29.4667C20.9296 34.8156 25.2659 39.1519 30.6148 39.1519C35.9638 39.1519 40.3 34.8156 40.3 29.4667V28.9667H39.8H37.0444H36.5444V29.4667C36.5444 32.7415 33.8897 35.3963 30.6148 35.3963C27.34 35.3963 24.6852 32.7415 24.6852 29.4667ZM45.5 30.5C45.5 38.7843 38.7843 45.5 30.5 45.5C22.2157 45.5 15.5 38.7843 15.5 30.5C15.5 22.2157 22.2157 15.5 30.5 15.5C38.7843 15.5 45.5 22.2157 45.5 30.5ZM26.3667 28.3593C28.1012 28.3593 29.5074 26.9531 29.5074 25.2185C29.5074 23.484 28.1012 22.0778 26.3667 22.0778C24.6321 22.0778 23.2259 23.484 23.2259 25.2185C23.2259 26.9531 24.6321 28.3593 26.3667 28.3593ZM34.6333 28.3593C36.3679 28.3593 37.7741 26.9531 37.7741 25.2185C37.7741 23.484 36.3679 22.0778 34.6333 22.0778C32.8988 22.0778 31.4926 23.484 31.4926 25.2185C31.4926 26.9531 32.8988 28.3593 34.6333 28.3593Z" fill="#FFBB25" stroke="black"/>
</svg>
