<svg width="116" height="44" viewBox="0 0 116 44" fill="none" xmlns="http://www.w3.org/2000/svg">
<path d="M0 19.8C0 8.86476 8.86476 0 19.8 0H95.7C106.635 0 115.5 8.86476 115.5 19.8V24.2C115.5 35.1352 106.635 44 95.7 44H19.8C8.86477 44 0 35.1352 0 24.2V19.8Z" fill="#820000"/>
<path d="M27.5008 14.8816H25.1377L24.7588 16H23.1443L25.4353 9.6682H27.2212L29.5122 16H27.8796L27.5008 14.8816ZM27.1039 13.691L26.3192 11.3729L25.5435 13.691H27.1039ZM30.9851 10.4439C30.7146 10.4439 30.4921 10.3657 30.3177 10.2094C30.1493 10.047 30.0651 9.84859 30.0651 9.61408C30.0651 9.37356 30.1493 9.17512 30.3177 9.01878C30.4921 8.85643 30.7146 8.77525 30.9851 8.77525C31.2497 8.77525 31.4662 8.85643 31.6346 9.01878C31.8089 9.17512 31.8961 9.37356 31.8961 9.61408C31.8961 9.84859 31.8089 10.047 31.6346 10.2094C31.4662 10.3657 31.2497 10.4439 30.9851 10.4439ZM31.7518 10.967V16H30.2095V10.967H31.7518ZM35.9362 10.9129C36.5255 10.9129 36.9945 11.1053 37.3433 11.4902C37.6981 11.869 37.8755 12.3921 37.8755 13.0596V16H36.3421V13.267C36.3421 12.9303 36.2549 12.6687 36.0806 12.4823C35.9062 12.2959 35.6717 12.2027 35.377 12.2027C35.0824 12.2027 34.8479 12.2959 34.6735 12.4823C34.4991 12.6687 34.4119 12.9303 34.4119 13.267V16H32.8696V10.967H34.4119V11.6345C34.5683 11.412 34.7787 11.2376 35.0433 11.1113C35.3079 10.9791 35.6055 10.9129 35.9362 10.9129ZM38.6406 13.4745C38.6406 12.9574 38.7368 12.5034 38.9292 12.1125C39.1276 11.7217 39.3952 11.421 39.732 11.2106C40.0687 11.0001 40.4445 10.8949 40.8594 10.8949C41.1901 10.8949 41.4908 10.964 41.7614 11.1023C42.038 11.2406 42.2545 11.427 42.4108 11.6615V9.32545H43.9532V16H42.4108V15.2784C42.2665 15.519 42.059 15.7114 41.7884 15.8557C41.5239 16 41.2142 16.0722 40.8594 16.0722C40.4445 16.0722 40.0687 15.9669 39.732 15.7565C39.3952 15.54 39.1276 15.2363 38.9292 14.8455C38.7368 14.4486 38.6406 13.9916 38.6406 13.4745ZM42.4108 13.4835C42.4108 13.0987 42.3026 12.795 42.0861 12.5725C41.8756 12.35 41.6171 12.2388 41.3104 12.2388C41.0037 12.2388 40.7422 12.35 40.5257 12.5725C40.3152 12.789 40.21 13.0897 40.21 13.4745C40.21 13.8593 40.3152 14.166 40.5257 14.3945C40.7422 14.617 41.0037 14.7282 41.3104 14.7282C41.6171 14.7282 41.8756 14.617 42.0861 14.3945C42.3026 14.172 42.4108 13.8684 42.4108 13.4835ZM44.7623 13.4745C44.7623 12.9574 44.8585 12.5034 45.051 12.1125C45.2494 11.7217 45.517 11.421 45.8537 11.2106C46.1904 11.0001 46.5663 10.8949 46.9812 10.8949C47.3359 10.8949 47.6456 10.967 47.9102 11.1113C48.1808 11.2557 48.3882 11.4451 48.5325 11.6796V10.967H50.0749V16H48.5325V15.2874C48.3822 15.522 48.1718 15.7114 47.9012 15.8557C47.6366 16 47.3269 16.0722 46.9721 16.0722C46.5633 16.0722 46.1904 15.9669 45.8537 15.7565C45.517 15.54 45.2494 15.2363 45.051 14.8455C44.8585 14.4486 44.7623 13.9916 44.7623 13.4745ZM48.5325 13.4835C48.5325 13.0987 48.4243 12.795 48.2078 12.5725C47.9974 12.35 47.7388 12.2388 47.4321 12.2388C47.1255 12.2388 46.8639 12.35 46.6474 12.5725C46.437 12.789 46.3317 13.0897 46.3317 13.4745C46.3317 13.8593 46.437 14.166 46.6474 14.3945C46.8639 14.617 47.1255 14.7282 47.4321 14.7282C47.7388 14.7282 47.9974 14.617 48.2078 14.3945C48.4243 14.172 48.5325 13.8684 48.5325 13.4835ZM56.1688 10.9129C56.7581 10.9129 57.2271 11.1053 57.5759 11.4902C57.9307 11.869 58.108 12.3921 58.108 13.0596V16H56.5747V13.267C56.5747 12.9303 56.4875 12.6687 56.3131 12.4823C56.1388 12.2959 55.9042 12.2027 55.6096 12.2027C55.315 12.2027 55.0804 12.2959 54.9061 12.4823C54.7317 12.6687 54.6445 12.9303 54.6445 13.267V16H53.1021V10.967H54.6445V11.6345C54.8008 11.412 55.0113 11.2376 55.2759 11.1113C55.5404 10.9791 55.8381 10.9129 56.1688 10.9129ZM58.8732 13.4745C58.8732 12.9574 58.9694 12.5034 59.1618 12.1125C59.3602 11.7217 59.6278 11.421 59.9645 11.2106C60.3013 11.0001 60.6771 10.8949 61.092 10.8949C61.4468 10.8949 61.7564 10.967 62.021 11.1113C62.2916 11.2557 62.4991 11.4451 62.6434 11.6796V10.967H64.1857V16H62.6434V15.2874C62.4931 15.522 62.2826 15.7114 62.012 15.8557C61.7474 16 61.4378 16.0722 61.083 16.0722C60.6741 16.0722 60.3013 15.9669 59.9645 15.7565C59.6278 15.54 59.3602 15.2363 59.1618 14.8455C58.9694 14.4486 58.8732 13.9916 58.8732 13.4745ZM62.6434 13.4835C62.6434 13.0987 62.5351 12.795 62.3187 12.5725C62.1082 12.35 61.8497 12.2388 61.543 12.2388C61.2363 12.2388 60.9747 12.35 60.7583 12.5725C60.5478 12.789 60.4426 13.0897 60.4426 13.4745C60.4426 13.8593 60.5478 14.166 60.7583 14.3945C60.9747 14.617 61.2363 14.7282 61.543 14.7282C61.8497 14.7282 62.1082 14.617 62.3187 14.3945C62.5351 14.172 62.6434 13.8684 62.6434 13.4835ZM59.9104 10.5431C60.0547 9.65317 60.4696 9.2082 61.1551 9.2082C61.2874 9.2082 61.4017 9.22924 61.4979 9.27133C61.6001 9.30741 61.7234 9.36454 61.8677 9.44271C61.9759 9.50284 62.0631 9.54794 62.1293 9.578C62.1954 9.60205 62.2646 9.61408 62.3367 9.61408C62.5592 9.61408 62.6885 9.47879 62.7246 9.2082H63.5183C63.374 10.0981 62.9591 10.5431 62.2736 10.5431C62.1413 10.5431 62.024 10.5251 61.9218 10.489C61.8256 10.4469 61.7053 10.3868 61.561 10.3086C61.4528 10.2485 61.3656 10.2064 61.2995 10.1823C61.2333 10.1523 61.1642 10.1372 61.092 10.1372C60.8695 10.1372 60.7372 10.2725 60.6951 10.5431H59.9104ZM67.5926 16.0722C67.0995 16.0722 66.6545 15.9669 66.2577 15.7565C65.8668 15.546 65.5571 15.2454 65.3286 14.8545C65.1061 14.4637 64.9949 14.0067 64.9949 13.4835C64.9949 12.9664 65.1092 12.5124 65.3377 12.1215C65.5662 11.7247 65.8788 11.421 66.2757 11.2106C66.6726 11.0001 67.1175 10.8949 67.6106 10.8949C68.1037 10.8949 68.5487 11.0001 68.9455 11.2106C69.3424 11.421 69.6551 11.7247 69.8836 12.1215C70.1121 12.5124 70.2263 12.9664 70.2263 13.4835C70.2263 14.0006 70.1091 14.4576 69.8745 14.8545C69.646 15.2454 69.3304 15.546 68.9275 15.7565C68.5306 15.9669 68.0856 16.0722 67.5926 16.0722ZM67.5926 14.7372C67.8872 14.7372 68.1368 14.629 68.3412 14.4125C68.5517 14.1961 68.6569 13.8864 68.6569 13.4835C68.6569 13.0806 68.5547 12.771 68.3502 12.5545C68.1518 12.338 67.9052 12.2298 67.6106 12.2298C67.31 12.2298 67.0604 12.338 66.862 12.5545C66.6635 12.7649 66.5643 13.0746 66.5643 13.4835C66.5643 13.8864 66.6605 14.1961 66.853 14.4125C67.0514 14.629 67.2979 14.7372 67.5926 14.7372ZM75.7611 14.6921V16H74.9764C74.4171 16 73.9812 15.8647 73.6685 15.5941C73.3558 15.3175 73.1995 14.8695 73.1995 14.2502V12.2478H72.5861V10.967H73.1995V9.74036H74.7418V10.967H75.7521V12.2478H74.7418V14.2682C74.7418 14.4186 74.7779 14.5268 74.8501 14.5929C74.9222 14.6591 75.0425 14.6921 75.2109 14.6921H75.7611ZM81.3645 13.4023C81.3645 13.5467 81.3555 13.697 81.3375 13.8533H77.8469C77.8709 14.166 77.9701 14.4065 78.1445 14.5749C78.3249 14.7372 78.5444 14.8184 78.803 14.8184C79.1878 14.8184 79.4554 14.6561 79.6057 14.3314H81.2473C81.1631 14.6621 81.0098 14.9597 80.7873 15.2243C80.5708 15.4889 80.2972 15.6963 79.9665 15.8467C79.6358 15.997 79.266 16.0722 78.8571 16.0722C78.364 16.0722 77.925 15.9669 77.5402 15.7565C77.1554 15.546 76.8547 15.2454 76.6382 14.8545C76.4218 14.4637 76.3135 14.0067 76.3135 13.4835C76.3135 12.9604 76.4188 12.5034 76.6292 12.1125C76.8457 11.7217 77.1463 11.421 77.5312 11.2106C77.916 11.0001 78.358 10.8949 78.8571 10.8949C79.3441 10.8949 79.7771 10.9971 80.1559 11.2015C80.5347 11.406 80.8294 11.6976 81.0398 12.0764C81.2563 12.4553 81.3645 12.8972 81.3645 13.4023ZM79.7861 12.9965C79.7861 12.7319 79.6959 12.5214 79.5155 12.3651C79.3351 12.2087 79.1096 12.1306 78.839 12.1306C78.5805 12.1306 78.361 12.2057 78.1806 12.3561C78.0062 12.5064 77.898 12.7198 77.8559 12.9965H79.7861ZM88.6002 10.9129C89.2256 10.9129 89.7217 11.1023 90.0885 11.4811C90.4613 11.86 90.6477 12.3861 90.6477 13.0596V16H89.1143V13.267C89.1143 12.9423 89.0271 12.6928 88.8528 12.5184C88.6844 12.338 88.4499 12.2478 88.1492 12.2478C87.8486 12.2478 87.611 12.338 87.4367 12.5184C87.2683 12.6928 87.1841 12.9423 87.1841 13.267V16H85.6508V13.267C85.6508 12.9423 85.5636 12.6928 85.3892 12.5184C85.2208 12.338 84.9863 12.2478 84.6857 12.2478C84.385 12.2478 84.1475 12.338 83.9731 12.5184C83.8048 12.6928 83.7206 12.9423 83.7206 13.267V16H82.1782V10.967H83.7206V11.5984C83.8769 11.3879 84.0814 11.2226 84.3339 11.1023C84.5865 10.976 84.8721 10.9129 85.1908 10.9129C85.5696 10.9129 85.9063 10.9941 86.201 11.1564C86.5016 11.3188 86.7361 11.5503 86.9045 11.851C87.0789 11.5744 87.3164 11.3489 87.6171 11.1745C87.9177 11.0001 88.2454 10.9129 88.6002 10.9129ZM26.6259 24.9129C27.2152 24.9129 27.6842 25.1053 28.033 25.4902C28.3877 25.869 28.5651 26.3921 28.5651 27.0596V30H27.0318V27.267C27.0318 26.9303 26.9446 26.6687 26.7702 26.4823C26.5958 26.2959 26.3613 26.2027 26.0667 26.2027C25.772 26.2027 25.5375 26.2959 25.3632 26.4823C25.1888 26.6687 25.1016 26.9303 25.1016 27.267V30H23.5592V24.967H25.1016V25.6345C25.2579 25.412 25.4684 25.2376 25.733 25.1113C25.9975 24.9791 26.2952 24.9129 26.6259 24.9129ZM30.4126 24.4439C30.142 24.4439 29.9195 24.3657 29.7452 24.2094C29.5768 24.047 29.4926 23.8486 29.4926 23.6141C29.4926 23.3736 29.5768 23.1751 29.7452 23.0188C29.9195 22.8564 30.142 22.7753 30.4126 22.7753C30.6772 22.7753 30.8937 22.8564 31.062 23.0188C31.2364 23.1751 31.3236 23.3736 31.3236 23.6141C31.3236 23.8486 31.2364 24.047 31.062 24.2094C30.8937 24.3657 30.6772 24.4439 30.4126 24.4439ZM31.1793 24.967V30H29.6369V24.967H31.1793ZM35.3637 24.9129C35.953 24.9129 36.422 25.1053 36.7708 25.4902C37.1255 25.869 37.3029 26.3921 37.3029 27.0596V30H35.7696V27.267C35.7696 26.9303 35.6824 26.6687 35.508 26.4823C35.3336 26.2959 35.0991 26.2027 34.8045 26.2027C34.5098 26.2027 34.2753 26.2959 34.1009 26.4823C33.9266 26.6687 33.8394 26.9303 33.8394 27.267V30H32.297V24.967H33.8394V25.6345C33.9957 25.412 34.2062 25.2376 34.4708 25.1113C34.7353 24.9791 35.033 24.9129 35.3637 24.9129ZM40.2869 24.8949C40.6417 24.8949 40.9513 24.967 41.2159 25.1113C41.4865 25.2557 41.694 25.4451 41.8383 25.6796V24.967H43.3806V29.991C43.3806 30.454 43.2874 30.8719 43.101 31.2447C42.9206 31.6235 42.641 31.9242 42.2622 32.1467C41.8894 32.3692 41.4234 32.4804 40.8641 32.4804C40.1185 32.4804 39.5142 32.303 39.0512 31.9482C38.5882 31.5995 38.3236 31.1245 38.2575 30.5231H39.7818C39.8299 30.7156 39.9441 30.8659 40.1245 30.9741C40.3049 31.0884 40.5274 31.1455 40.792 31.1455C41.1107 31.1455 41.3632 31.0523 41.5496 30.8659C41.7421 30.6855 41.8383 30.3939 41.8383 29.991V29.2784C41.6879 29.5129 41.4805 29.7054 41.2159 29.8557C40.9513 30 40.6417 30.0722 40.2869 30.0722C39.872 30.0722 39.4962 29.9669 39.1594 29.7565C38.8227 29.54 38.5551 29.2363 38.3567 28.8455C38.1643 28.4486 38.068 27.9916 38.068 27.4745C38.068 26.9574 38.1643 26.5034 38.3567 26.1125C38.5551 25.7217 38.8227 25.421 39.1594 25.2106C39.4962 25.0001 39.872 24.8949 40.2869 24.8949ZM41.8383 27.4835C41.8383 27.0987 41.73 26.795 41.5136 26.5725C41.3031 26.35 41.0445 26.2388 40.7379 26.2388C40.4312 26.2388 40.1696 26.35 39.9532 26.5725C39.7427 26.789 39.6375 27.0897 39.6375 27.4745C39.6375 27.8593 39.7427 28.166 39.9532 28.3945C40.1696 28.617 40.4312 28.7282 40.7379 28.7282C41.0445 28.7282 41.3031 28.617 41.5136 28.3945C41.73 28.172 41.8383 27.8684 41.8383 27.4835ZM49.4663 24.967V30H47.9239V29.3145C47.7676 29.537 47.5541 29.7174 47.2835 29.8557C47.019 29.988 46.7243 30.0541 46.3996 30.0541C46.0148 30.0541 45.675 29.9699 45.3804 29.8016C45.0857 29.6272 44.8572 29.3776 44.6949 29.0529C44.5325 28.7282 44.4514 28.3464 44.4514 27.9074V24.967H45.9847V27.7C45.9847 28.0367 46.0719 28.2983 46.2463 28.4847C46.4207 28.6711 46.6552 28.7643 46.9498 28.7643C47.2505 28.7643 47.488 28.6711 47.6624 28.4847C47.8367 28.2983 47.9239 28.0367 47.9239 27.7V24.967H49.4663ZM55.3185 27.4023C55.3185 27.5467 55.3095 27.697 55.2914 27.8533H51.8008C51.8249 28.166 51.9241 28.4065 52.0985 28.5749C52.2789 28.7372 52.4984 28.8184 52.7569 28.8184C53.1418 28.8184 53.4093 28.6561 53.5597 28.3314H55.2012C55.1171 28.6621 54.9637 28.9597 54.7412 29.2243C54.5248 29.4889 54.2512 29.6963 53.9205 29.8467C53.5897 29.997 53.2199 30.0722 52.811 30.0722C52.318 30.0722 51.879 29.9669 51.4942 29.7565C51.1093 29.546 50.8087 29.2454 50.5922 28.8545C50.3757 28.4637 50.2675 28.0067 50.2675 27.4835C50.2675 26.9604 50.3727 26.5034 50.5832 26.1125C50.7997 25.7217 51.1003 25.421 51.4851 25.2106C51.87 25.0001 52.3119 24.8949 52.811 24.8949C53.2981 24.8949 53.731 24.9971 54.1099 25.2015C54.4887 25.406 54.7833 25.6976 54.9938 26.0764C55.2103 26.4553 55.3185 26.8972 55.3185 27.4023ZM53.7401 26.9965C53.7401 26.7319 53.6499 26.5214 53.4695 26.3651C53.2891 26.2087 53.0636 26.1306 52.793 26.1306C52.5344 26.1306 52.315 26.2057 52.1346 26.3561C51.9602 26.5064 51.8519 26.7198 51.8099 26.9965H53.7401ZM53.8483 23.6772L51.6746 24.5882V23.5239L53.8483 22.4776V23.6772ZM62.5542 24.9129C63.1795 24.9129 63.6756 25.1023 64.0424 25.4811C64.4152 25.86 64.6016 26.3861 64.6016 27.0596V30H63.0683V27.267C63.0683 26.9423 62.9811 26.6928 62.8067 26.5184C62.6384 26.338 62.4038 26.2478 62.1032 26.2478C61.8025 26.2478 61.565 26.338 61.3906 26.5184C61.2223 26.6928 61.1381 26.9423 61.1381 27.267V30H59.6047V27.267C59.6047 26.9423 59.5176 26.6928 59.3432 26.5184C59.1748 26.338 58.9403 26.2478 58.6396 26.2478C58.339 26.2478 58.1015 26.338 57.9271 26.5184C57.7587 26.6928 57.6745 26.9423 57.6745 27.267V30H56.1322V24.967H57.6745V25.5984C57.8309 25.3879 58.0353 25.2226 58.2879 25.1023C58.5404 24.976 58.826 24.9129 59.1447 24.9129C59.5236 24.9129 59.8603 24.9941 60.1549 25.1564C60.4556 25.3188 60.6901 25.5503 60.8585 25.851C61.0329 25.5744 61.2704 25.3489 61.571 25.1745C61.8717 25.0001 62.1994 24.9129 62.5542 24.9129ZM67.2851 27.4745C67.2851 26.9574 67.3813 26.5034 67.5737 26.1125C67.7721 25.7217 68.0397 25.421 68.3764 25.2106C68.7132 25.0001 69.089 24.8949 69.5039 24.8949C69.8587 24.8949 70.1683 24.967 70.4329 25.1113C70.7035 25.2557 70.911 25.4451 71.0553 25.6796V24.967H72.5976V30H71.0553V29.2874C70.9049 29.522 70.6945 29.7114 70.4239 29.8557C70.1593 30 69.8496 30.0722 69.4949 30.0722C69.086 30.0722 68.7132 29.9669 68.3764 29.7565C68.0397 29.54 67.7721 29.2363 67.5737 28.8455C67.3813 28.4486 67.2851 27.9916 67.2851 27.4745ZM71.0553 27.4835C71.0553 27.0987 70.947 26.795 70.7306 26.5725C70.5201 26.35 70.2615 26.2388 69.9549 26.2388C69.6482 26.2388 69.3866 26.35 69.1702 26.5725C68.9597 26.789 68.8545 27.0897 68.8545 27.4745C68.8545 27.8593 68.9597 28.166 69.1702 28.3945C69.3866 28.617 69.6482 28.7282 69.9549 28.7282C70.2615 28.7282 70.5201 28.617 70.7306 28.3945C70.947 28.172 71.0553 27.8684 71.0553 27.4835ZM73.4068 27.4925C73.4068 26.9934 73.509 26.5485 73.7135 26.1576C73.9239 25.7668 74.2035 25.4631 74.5523 25.2466C74.9071 25.0242 75.2919 24.9129 75.7068 24.9129C76.0255 24.9129 76.3111 24.97 76.5637 25.0843C76.8162 25.1925 77.0207 25.3459 77.177 25.5443V24.967H78.7194V32.3992H77.177V29.3686C77.0026 29.5791 76.7892 29.7474 76.5366 29.8737C76.2901 30 76.0075 30.0631 75.6888 30.0631C75.2799 30.0631 74.9011 29.9549 74.5523 29.7384C74.2035 29.522 73.9239 29.2183 73.7135 28.8274C73.509 28.4366 73.4068 27.9916 73.4068 27.4925ZM77.177 27.4835C77.177 27.2129 77.1229 26.9874 77.0147 26.807C76.9124 26.6206 76.7771 26.4823 76.6088 26.3921C76.4404 26.2959 76.263 26.2478 76.0766 26.2478C75.8962 26.2478 75.7218 26.2959 75.5535 26.3921C75.3851 26.4823 75.2468 26.6206 75.1386 26.807C75.0303 26.9934 74.9762 27.2219 74.9762 27.4925C74.9762 27.7631 75.0303 27.9916 75.1386 28.178C75.2468 28.3584 75.3851 28.4967 75.5535 28.5929C75.7218 28.6831 75.8962 28.7282 76.0766 28.7282C76.257 28.7282 76.4314 28.6831 76.5998 28.5929C76.7741 28.4967 76.9124 28.3554 77.0147 28.169C77.1229 27.9826 77.177 27.7541 77.177 27.4835ZM84.805 24.967V30H83.2627V29.3145C83.1063 29.537 82.8929 29.7174 82.6223 29.8557C82.3577 29.988 82.0631 30.0541 81.7384 30.0541C81.3535 30.0541 81.0138 29.9699 80.7191 29.8016C80.4245 29.6272 80.196 29.3776 80.0336 29.0529C79.8713 28.7282 79.7901 28.3464 79.7901 27.9074V24.967H81.3235V27.7C81.3235 28.0367 81.4106 28.2983 81.585 28.4847C81.7594 28.6711 81.9939 28.7643 82.2886 28.7643C82.5892 28.7643 82.8267 28.6711 83.0011 28.4847C83.1755 28.2983 83.2627 28.0367 83.2627 27.7V24.967H84.805ZM86.6886 24.4439C86.418 24.4439 86.1955 24.3657 86.0211 24.2094C85.8528 24.047 85.7686 23.8486 85.7686 23.6141C85.7686 23.3736 85.8528 23.1751 86.0211 23.0188C86.1955 22.8564 86.418 22.7753 86.6886 22.7753C86.9532 22.7753 87.1696 22.8564 87.338 23.0188C87.5124 23.1751 87.5996 23.3736 87.5996 23.6141C87.5996 23.8486 87.5124 24.047 87.338 24.2094C87.1696 24.3657 86.9532 24.4439 86.6886 24.4439ZM87.4553 24.967V30H85.9129V24.967H87.4553ZM89.2946 30.0722C89.024 30.0722 88.8015 29.994 88.6271 29.8376C88.4588 29.6753 88.3746 29.4769 88.3746 29.2423C88.3746 29.0018 88.4588 28.8004 88.6271 28.638C88.8015 28.4757 89.024 28.3945 89.2946 28.3945C89.5592 28.3945 89.7756 28.4757 89.944 28.638C90.1184 28.8004 90.2056 29.0018 90.2056 29.2423C90.2056 29.4769 90.1184 29.6753 89.944 29.8376C89.7756 29.994 89.5592 30.0722 89.2946 30.0722ZM91.8402 30.0722C91.5696 30.0722 91.3471 29.994 91.1727 29.8376C91.0043 29.6753 90.9202 29.4769 90.9202 29.2423C90.9202 29.0018 91.0043 28.8004 91.1727 28.638C91.3471 28.4757 91.5696 28.3945 91.8402 28.3945C92.1047 28.3945 92.3212 28.4757 92.4896 28.638C92.664 28.8004 92.7511 29.0018 92.7511 29.2423C92.7511 29.4769 92.664 29.6753 92.4896 29.8376C92.3212 29.994 92.1047 30.0722 91.8402 30.0722ZM94.3858 30.0722C94.1152 30.0722 93.8927 29.994 93.7183 29.8376C93.5499 29.6753 93.4658 29.4769 93.4658 29.2423C93.4658 29.0018 93.5499 28.8004 93.7183 28.638C93.8927 28.4757 94.1152 28.3945 94.3858 28.3945C94.6503 28.3945 94.8668 28.4757 95.0352 28.638C95.2096 28.8004 95.2967 29.0018 95.2967 29.2423C95.2967 29.4769 95.2096 29.6753 95.0352 29.8376C94.8668 29.994 94.6503 30.0722 94.3858 30.0722Z" fill="white"/>
</svg>
