<svg width="116" height="44" viewBox="0 0 116 44" fill="none" xmlns="http://www.w3.org/2000/svg">
<path d="M0 19.8C0 8.86476 8.86476 0 19.8 0H95.7C106.635 0 115.5 8.86476 115.5 19.8V24.2C115.5 35.1352 106.635 44 95.7 44H19.8C8.86477 44 0 35.1352 0 24.2V19.8Z" fill="#820000"/>
<path d="M23.9112 18.0722C23.6406 18.0722 23.4181 17.994 23.2438 17.8376C23.0754 17.6753 22.9912 17.4769 22.9912 17.2423C22.9912 17.0018 23.0754 16.8004 23.2438 16.638C23.4181 16.4757 23.6406 16.3945 23.9112 16.3945C24.1758 16.3945 24.3923 16.4757 24.5606 16.638C24.735 16.8004 24.8222 17.0018 24.8222 17.2423C24.8222 17.4769 24.735 17.6753 24.5606 17.8376C24.3923 17.994 24.1758 18.0722 23.9112 18.0722ZM26.4568 18.0722C26.1862 18.0722 25.9637 17.994 25.7893 17.8376C25.621 17.6753 25.5368 17.4769 25.5368 17.2423C25.5368 17.0018 25.621 16.8004 25.7893 16.638C25.9637 16.4757 26.1862 16.3945 26.4568 16.3945C26.7214 16.3945 26.9378 16.4757 27.1062 16.638C27.2806 16.8004 27.3678 17.0018 27.3678 17.2423C27.3678 17.4769 27.2806 17.6753 27.1062 17.8376C26.9378 17.994 26.7214 18.0722 26.4568 18.0722ZM29.0024 18.0722C28.7318 18.0722 28.5093 17.994 28.3349 17.8376C28.1666 17.6753 28.0824 17.4769 28.0824 17.2423C28.0824 17.0018 28.1666 16.8004 28.3349 16.638C28.5093 16.4757 28.7318 16.3945 29.0024 16.3945C29.267 16.3945 29.4834 16.4757 29.6518 16.638C29.8262 16.8004 29.9134 17.0018 29.9134 17.2423C29.9134 17.4769 29.8262 17.6753 29.6518 17.8376C29.4834 17.994 29.267 18.0722 29.0024 18.0722ZM37.2484 12.9129C37.8738 12.9129 38.3698 13.1023 38.7366 13.4811C39.1095 13.86 39.2959 14.3861 39.2959 15.0596V18H37.7625V15.267C37.7625 14.9423 37.6753 14.6928 37.501 14.5184C37.3326 14.338 37.0981 14.2478 36.7974 14.2478C36.4968 14.2478 36.2592 14.338 36.0849 14.5184C35.9165 14.6928 35.8323 14.9423 35.8323 15.267V18H34.299V15.267C34.299 14.9423 34.2118 14.6928 34.0374 14.5184C33.869 14.338 33.6345 14.2478 33.3339 14.2478C33.0332 14.2478 32.7957 14.338 32.6213 14.5184C32.4529 14.6928 32.3688 14.9423 32.3688 15.267V18H30.8264V12.967H32.3688V13.5984C32.5251 13.3879 32.7296 13.2226 32.9821 13.1023C33.2347 12.976 33.5203 12.9129 33.839 12.9129C34.2178 12.9129 34.5545 12.9941 34.8492 13.1564C35.1498 13.3188 35.3843 13.5503 35.5527 13.851C35.7271 13.5744 35.9646 13.3489 36.2653 13.1745C36.5659 13.0001 36.8936 12.9129 37.2484 12.9129ZM45.1189 15.4023C45.1189 15.5467 45.1099 15.697 45.0918 15.8533H41.6012C41.6253 16.166 41.7245 16.4065 41.8989 16.5749C42.0793 16.7372 42.2988 16.8184 42.5573 16.8184C42.9422 16.8184 43.2097 16.6561 43.3601 16.3314H45.0016C44.9175 16.6621 44.7641 16.9597 44.5416 17.2243C44.3252 17.4889 44.0516 17.6963 43.7209 17.8467C43.3901 17.997 43.0203 18.0722 42.6114 18.0722C42.1184 18.0722 41.6794 17.9669 41.2946 17.7565C40.9097 17.546 40.6091 17.2454 40.3926 16.8545C40.1761 16.4637 40.0679 16.0067 40.0679 15.4835C40.0679 14.9604 40.1731 14.5034 40.3836 14.1125C40.6001 13.7217 40.9007 13.421 41.2855 13.2106C41.6704 13.0001 42.1123 12.8949 42.6114 12.8949C43.0985 12.8949 43.5314 12.9971 43.9103 13.2015C44.2891 13.406 44.5837 13.6976 44.7942 14.0764C45.0107 14.4553 45.1189 14.8972 45.1189 15.4023ZM43.5405 14.9965C43.5405 14.7319 43.4503 14.5214 43.2699 14.3651C43.0895 14.2087 42.864 14.1306 42.5934 14.1306C42.3348 14.1306 42.1154 14.2057 41.935 14.3561C41.7606 14.5064 41.6523 14.7198 41.6103 14.9965H43.5405ZM50.9024 12.967V18H49.36V17.3145C49.2037 17.537 48.9902 17.7174 48.7197 17.8557C48.4551 17.988 48.1604 18.0541 47.8357 18.0541C47.4509 18.0541 47.1111 17.9699 46.8165 17.8016C46.5219 17.6272 46.2934 17.3776 46.131 17.0529C45.9687 16.7282 45.8875 16.3464 45.8875 15.9074V12.967H47.4208V15.7C47.4208 16.0367 47.508 16.2983 47.6824 16.4847C47.8568 16.6711 48.0913 16.7643 48.3859 16.7643C48.6866 16.7643 48.9241 16.6711 49.0985 16.4847C49.2729 16.2983 49.36 16.0367 49.36 15.7V12.967H50.9024ZM55.464 13.6796C55.6144 13.4451 55.8218 13.2557 56.0864 13.1113C56.351 12.967 56.6606 12.8949 57.0154 12.8949C57.4303 12.8949 57.8061 13.0001 58.1429 13.2106C58.4796 13.421 58.7442 13.7217 58.9366 14.1125C59.135 14.5034 59.2342 14.9574 59.2342 15.4745C59.2342 15.9916 59.135 16.4486 58.9366 16.8455C58.7442 17.2363 58.4796 17.54 58.1429 17.7565C57.8061 17.9669 57.4303 18.0722 57.0154 18.0722C56.6667 18.0722 56.357 18 56.0864 17.8557C55.8218 17.7114 55.6144 17.525 55.464 17.2965V20.3992H53.9217V12.967H55.464V13.6796ZM57.6648 15.4745C57.6648 15.0897 57.5566 14.789 57.3401 14.5725C57.1297 14.35 56.8681 14.2388 56.5554 14.2388C56.2487 14.2388 55.9872 14.35 55.7707 14.5725C55.5602 14.795 55.455 15.0987 55.455 15.4835C55.455 15.8684 55.5602 16.172 55.7707 16.3945C55.9872 16.617 56.2487 16.7282 56.5554 16.7282C56.8621 16.7282 57.1236 16.617 57.3401 16.3945C57.5566 16.166 57.6648 15.8593 57.6648 15.4745ZM61.5858 13.8059C61.7662 13.5293 61.9917 13.3128 62.2622 13.1564C62.5328 12.9941 62.8335 12.9129 63.1642 12.9129V14.5455H62.7403C62.3555 14.5455 62.0668 14.6297 61.8744 14.798C61.682 14.9604 61.5858 15.249 61.5858 15.6639V18H60.0434V12.967H61.5858V13.8059ZM64.6771 12.4439C64.4065 12.4439 64.184 12.3657 64.0097 12.2094C63.8413 12.047 63.7571 11.8486 63.7571 11.6141C63.7571 11.3736 63.8413 11.1751 64.0097 11.0188C64.184 10.8564 64.4065 10.7753 64.6771 10.7753C64.9417 10.7753 65.1582 10.8564 65.3265 11.0188C65.5009 11.1751 65.5881 11.3736 65.5881 11.6141C65.5881 11.8486 65.5009 12.047 65.3265 12.2094C65.1582 12.3657 64.9417 12.4439 64.6771 12.4439ZM65.4438 12.967V18H63.9014V12.967H65.4438ZM72.9835 12.9129C73.6089 12.9129 74.105 13.1023 74.4718 13.4811C74.8446 13.86 75.031 14.3861 75.031 15.0596V18H73.4976V15.267C73.4976 14.9423 73.4105 14.6928 73.2361 14.5184C73.0677 14.338 72.8332 14.2478 72.5325 14.2478C72.2319 14.2478 71.9944 14.338 71.82 14.5184C71.6516 14.6928 71.5674 14.9423 71.5674 15.267V18H70.0341V15.267C70.0341 14.9423 69.9469 14.6928 69.7725 14.5184C69.6042 14.338 69.3696 14.2478 69.069 14.2478C68.7683 14.2478 68.5308 14.338 68.3564 14.5184C68.1881 14.6928 68.1039 14.9423 68.1039 15.267V18H66.5615V12.967H68.1039V13.5984C68.2602 13.3879 68.4647 13.2226 68.7172 13.1023C68.9698 12.976 69.2554 12.9129 69.5741 12.9129C69.9529 12.9129 70.2897 12.9941 70.5843 13.1564C70.885 13.3188 71.1195 13.5503 71.2878 13.851C71.4622 13.5744 71.6997 13.3489 72.0004 13.1745C72.301 13.0001 72.6288 12.9129 72.9835 12.9129ZM80.854 15.4023C80.854 15.5467 80.845 15.697 80.827 15.8533H77.3364C77.3604 16.166 77.4596 16.4065 77.634 16.5749C77.8144 16.7372 78.0339 16.8184 78.2924 16.8184C78.6773 16.8184 78.9449 16.6561 79.0952 16.3314H80.7368C80.6526 16.6621 80.4992 16.9597 80.2768 17.2243C80.0603 17.4889 79.7867 17.6963 79.456 17.8467C79.1253 17.997 78.7554 18.0722 78.3466 18.0722C77.8535 18.0722 77.4145 17.9669 77.0297 17.7565C76.6448 17.546 76.3442 17.2454 76.1277 16.8545C75.9112 16.4637 75.803 16.0067 75.803 15.4835C75.803 14.9604 75.9082 14.5034 76.1187 14.1125C76.3352 13.7217 76.6358 13.421 77.0207 13.2106C77.4055 13.0001 77.8475 12.8949 78.3466 12.8949C78.8336 12.8949 79.2666 12.9971 79.6454 13.2015C80.0242 13.406 80.3189 13.6976 80.5293 14.0764C80.7458 14.4553 80.854 14.8972 80.854 15.4023ZM79.2756 14.9965C79.2756 14.7319 79.1854 14.5214 79.005 14.3651C78.8246 14.2087 78.5991 14.1306 78.3285 14.1306C78.07 14.1306 77.8505 14.2057 77.6701 14.3561C77.4957 14.5064 77.3875 14.7198 77.3454 14.9965H79.2756ZM82.4434 12.4439C82.1728 12.4439 81.9503 12.3657 81.7759 12.2094C81.6076 12.047 81.5234 11.8486 81.5234 11.6141C81.5234 11.3736 81.6076 11.1751 81.7759 11.0188C81.9503 10.8564 82.1728 10.7753 82.4434 10.7753C82.708 10.7753 82.9244 10.8564 83.0928 11.0188C83.2672 11.1751 83.3544 11.3736 83.3544 11.6141C83.3544 11.8486 83.2672 12.047 83.0928 12.2094C82.9244 12.3657 82.708 12.4439 82.4434 12.4439ZM83.2101 12.967V18H81.6677V12.967H83.2101ZM85.8702 13.8059C86.0505 13.5293 86.276 13.3128 86.5466 13.1564C86.8172 12.9941 87.1179 12.9129 87.4486 12.9129V14.5455H87.0247C86.6398 14.5455 86.3512 14.6297 86.1588 14.798C85.9664 14.9604 85.8702 15.249 85.8702 15.6639V18H84.3278V12.967H85.8702V13.8059ZM90.4768 18.0722C89.9837 18.0722 89.5388 17.9669 89.1419 17.7565C88.751 17.546 88.4414 17.2454 88.2129 16.8545C87.9904 16.4637 87.8791 16.0067 87.8791 15.4835C87.8791 14.9664 87.9934 14.5124 88.2219 14.1215C88.4504 13.7247 88.7631 13.421 89.1599 13.2106C89.5568 13.0001 90.0018 12.8949 90.4948 12.8949C90.9879 12.8949 91.4329 13.0001 91.8297 13.2106C92.2266 13.421 92.5393 13.7247 92.7678 14.1215C92.9963 14.5124 93.1105 14.9664 93.1105 15.4835C93.1105 16.0006 92.9933 16.4576 92.7588 16.8545C92.5303 17.2454 92.2146 17.546 91.8117 17.7565C91.4148 17.9669 90.9699 18.0722 90.4768 18.0722ZM90.4768 16.7372C90.7714 16.7372 91.021 16.629 91.2254 16.4125C91.4359 16.1961 91.5411 15.8864 91.5411 15.4835C91.5411 15.0806 91.4389 14.771 91.2345 14.5545C91.036 14.338 90.7895 14.2298 90.4948 14.2298C90.1942 14.2298 89.9446 14.338 89.7462 14.5545C89.5478 14.7649 89.4486 15.0746 89.4486 15.4835C89.4486 15.8864 89.5448 16.1961 89.7372 16.4125C89.9356 16.629 90.1822 16.7372 90.4768 16.7372ZM38.9008 29.4835C38.9008 28.9604 39.006 28.5034 39.2165 28.1125C39.433 27.7217 39.7306 27.421 40.1094 27.2106C40.4943 27.0001 40.9332 26.8949 41.4263 26.8949C42.0577 26.8949 42.5838 27.0602 43.0047 27.391C43.4317 27.7217 43.7113 28.1877 43.8436 28.789H42.202C42.0637 28.4042 41.7961 28.2117 41.3992 28.2117C41.1166 28.2117 40.8911 28.323 40.7228 28.5455C40.5544 28.7619 40.4702 29.0746 40.4702 29.4835C40.4702 29.8924 40.5544 30.2081 40.7228 30.4306C40.8911 30.6471 41.1166 30.7553 41.3992 30.7553C41.7961 30.7553 42.0637 30.5629 42.202 30.178H43.8436C43.7113 30.7673 43.4317 31.2303 43.0047 31.5671C42.5778 31.9038 42.0517 32.0722 41.4263 32.0722C40.9332 32.0722 40.4943 31.9669 40.1094 31.7565C39.7306 31.546 39.433 31.2454 39.2165 30.8545C39.006 30.4637 38.9008 30.0067 38.9008 29.4835ZM46.211 25.3255V32H44.6686V25.3255H46.211ZM48.1044 26.4439C47.8338 26.4439 47.6113 26.3657 47.4369 26.2094C47.2686 26.047 47.1844 25.8486 47.1844 25.6141C47.1844 25.3736 47.2686 25.1751 47.4369 25.0188C47.6113 24.8564 47.8338 24.7753 48.1044 24.7753C48.3689 24.7753 48.5854 24.8564 48.7538 25.0188C48.9282 25.1751 49.0154 25.3736 49.0154 25.6141C49.0154 25.8486 48.9282 26.047 48.7538 26.2094C48.5854 26.3657 48.3689 26.4439 48.1044 26.4439ZM48.871 26.967V32H47.3287V26.967H48.871ZM54.7331 29.4023C54.7331 29.5467 54.7241 29.697 54.7061 29.8533H51.2155C51.2395 30.166 51.3387 30.4065 51.5131 30.5749C51.6935 30.7372 51.913 30.8184 52.1715 30.8184C52.5564 30.8184 52.824 30.6561 52.9743 30.3314H54.6159C54.5317 30.6621 54.3783 30.9597 54.1559 31.2243C53.9394 31.4889 53.6658 31.6963 53.3351 31.8467C53.0044 31.997 52.6345 32.0722 52.2257 32.0722C51.7326 32.0722 51.2936 31.9669 50.9088 31.7565C50.5239 31.546 50.2233 31.2454 50.0068 30.8545C49.7903 30.4637 49.6821 30.0067 49.6821 29.4835C49.6821 28.9604 49.7873 28.5034 49.9978 28.1125C50.2143 27.7217 50.5149 27.421 50.8998 27.2106C51.2846 27.0001 51.7266 26.8949 52.2257 26.8949C52.7127 26.8949 53.1457 26.9971 53.5245 27.2015C53.9033 27.406 54.198 27.6976 54.4084 28.0764C54.6249 28.4553 54.7331 28.8972 54.7331 29.4023ZM53.1547 28.9965C53.1547 28.7319 53.0645 28.5214 52.8841 28.3651C52.7037 28.2087 52.4782 28.1306 52.2076 28.1306C51.949 28.1306 51.7296 28.2057 51.5492 28.3561C51.3748 28.5064 51.2666 28.7198 51.2245 28.9965H53.1547ZM58.6135 26.9129C59.2028 26.9129 59.6718 27.1053 60.0205 27.4902C60.3753 27.869 60.5527 28.3921 60.5527 29.0596V32H59.0194V29.267C59.0194 28.9303 58.9322 28.6687 58.7578 28.4823C58.5834 28.2959 58.3489 28.2027 58.0543 28.2027C57.7596 28.2027 57.5251 28.2959 57.3507 28.4823C57.1763 28.6687 57.0892 28.9303 57.0892 29.267V32H55.5468V26.967H57.0892V27.6345C57.2455 27.412 57.456 27.2376 57.7205 27.1113C57.9851 26.9791 58.2828 26.9129 58.6135 26.9129ZM64.4296 30.6921V32H63.6449C63.0857 32 62.6497 31.8647 62.337 31.5941C62.0244 31.3175 61.868 30.8695 61.868 30.2502V28.2478H61.2547V26.967H61.868V25.7404H63.4104V26.967H64.4206V28.2478H63.4104V30.2682C63.4104 30.4186 63.4465 30.5268 63.5186 30.5929C63.5908 30.6591 63.711 30.6921 63.8794 30.6921H64.4296ZM70.0331 29.4023C70.0331 29.5467 70.0241 29.697 70.006 29.8533H66.5154C66.5395 30.166 66.6387 30.4065 66.8131 30.5749C66.9935 30.7372 67.2129 30.8184 67.4715 30.8184C67.8563 30.8184 68.1239 30.6561 68.2742 30.3314H69.9158C69.8316 30.6621 69.6783 30.9597 69.4558 31.2243C69.2393 31.4889 68.9657 31.6963 68.635 31.8467C68.3043 31.997 67.9345 32.0722 67.5256 32.0722C67.0325 32.0722 66.5936 31.9669 66.2087 31.7565C65.8239 31.546 65.5232 31.2454 65.3068 30.8545C65.0903 30.4637 64.9821 30.0067 64.9821 29.4835C64.9821 28.9604 65.0873 28.5034 65.2978 28.1125C65.5142 27.7217 65.8149 27.421 66.1997 27.2106C66.5846 27.0001 67.0265 26.8949 67.5256 26.8949C68.0127 26.8949 68.4456 26.9971 68.8244 27.2015C69.2033 27.406 69.4979 27.6976 69.7084 28.0764C69.9248 28.4553 70.0331 28.8972 70.0331 29.4023ZM68.4546 28.9965C68.4546 28.7319 68.3644 28.5214 68.184 28.3651C68.0037 28.2087 67.7782 28.1306 67.5076 28.1306C67.249 28.1306 67.0295 28.2057 66.8491 28.3561C66.6748 28.5064 66.5665 28.7198 66.5244 28.9965H68.4546ZM72.8762 25.4427L72.6958 29.7631H71.3879L71.2075 25.4427H72.8762ZM72.0644 32.0722C71.7938 32.0722 71.5713 31.994 71.3969 31.8376C71.2286 31.6753 71.1444 31.4769 71.1444 31.2423C71.1444 31.0018 71.2286 30.8004 71.3969 30.638C71.5713 30.4757 71.7938 30.3945 72.0644 30.3945C72.329 30.3945 72.5455 30.4757 72.7138 30.638C72.8882 30.8004 72.9754 31.0018 72.9754 31.2423C72.9754 31.4769 72.8882 31.6753 72.7138 31.8376C72.5455 31.994 72.329 32.0722 72.0644 32.0722ZM76.4083 25.4427L76.2279 29.7631H74.92L74.7396 25.4427H76.4083ZM75.5965 32.0722C75.3259 32.0722 75.1034 31.994 74.9291 31.8376C74.7607 31.6753 74.6765 31.4769 74.6765 31.2423C74.6765 31.0018 74.7607 30.8004 74.9291 30.638C75.1034 30.4757 75.3259 30.3945 75.5965 30.3945C75.8611 30.3945 76.0776 30.4757 76.2459 30.638C76.4203 30.8004 76.5075 31.0018 76.5075 31.2423C76.5075 31.4769 76.4203 31.6753 76.2459 31.8376C76.0776 31.994 75.8611 32.0722 75.5965 32.0722Z" fill="white"/>
</svg>
