<svg width="116" height="44" viewBox="0 0 116 44" fill="none" xmlns="http://www.w3.org/2000/svg">
<path d="M0 19.8C0 8.86476 8.86476 0 19.8 0H95.7C106.635 0 115.5 8.86476 115.5 19.8V24.2C115.5 35.1352 106.635 44 95.7 44H19.8C8.86477 44 0 35.1352 0 24.2V19.8Z" fill="#820000"/>
<path d="M20.7298 11.6682V18H19.1875V14.2027L17.7714 18H16.5267L15.1016 14.1937V18H13.5592V11.6682H15.3812L17.1581 16.0518L18.9169 11.6682H20.7298ZM21.5323 15.4745C21.5323 14.9574 21.6285 14.5034 21.8209 14.1125C22.0194 13.7217 22.287 13.421 22.6237 13.2106C22.9604 13.0001 23.3362 12.8949 23.7512 12.8949C24.1059 12.8949 24.4156 12.967 24.6802 13.1113C24.9508 13.2557 25.1582 13.4451 25.3025 13.6796V12.967H26.8449V18H25.3025V17.2874C25.1522 17.522 24.9417 17.7114 24.6712 17.8557C24.4066 18 24.0969 18.0722 23.7421 18.0722C23.3332 18.0722 22.9604 17.9669 22.6237 17.7565C22.287 17.54 22.0194 17.2363 21.8209 16.8455C21.6285 16.4486 21.5323 15.9916 21.5323 15.4745ZM25.3025 15.4835C25.3025 15.0987 25.1943 14.795 24.9778 14.5725C24.7674 14.35 24.5088 14.2388 24.2021 14.2388C23.8955 14.2388 23.6339 14.35 23.4174 14.5725C23.207 14.789 23.1017 15.0897 23.1017 15.4745C23.1017 15.8593 23.207 16.166 23.4174 16.3945C23.6339 16.617 23.8955 16.7282 24.2021 16.7282C24.5088 16.7282 24.7674 16.617 24.9778 16.3945C25.1943 16.172 25.3025 15.8684 25.3025 15.4835ZM30.0082 18.0722C29.5692 18.0722 29.1784 17.997 28.8356 17.8467C28.4929 17.6963 28.2223 17.4919 28.0239 17.2333C27.8254 16.9688 27.7142 16.6741 27.6901 16.3494H29.2145C29.2325 16.5238 29.3137 16.6651 29.458 16.7733C29.6023 16.8816 29.7797 16.9357 29.9902 16.9357C30.1826 16.9357 30.3299 16.8996 30.4321 16.8274C30.5404 16.7493 30.5945 16.6501 30.5945 16.5298C30.5945 16.3855 30.5193 16.2803 30.369 16.2141C30.2187 16.1419 29.9751 16.0638 29.6384 15.9796C29.2776 15.8954 28.9769 15.8082 28.7364 15.718C28.4959 15.6218 28.2884 15.4745 28.1141 15.2761C27.9397 15.0716 27.8525 14.798 27.8525 14.4553C27.8525 14.1666 27.9307 13.9051 28.087 13.6706C28.2494 13.43 28.4839 13.2406 28.7905 13.1023C29.1032 12.964 29.473 12.8949 29.9 12.8949C30.5313 12.8949 31.0274 13.0512 31.3882 13.3639C31.755 13.6766 31.9655 14.0915 32.0196 14.6086H30.5945C30.5704 14.4342 30.4922 14.2959 30.36 14.1937C30.2337 14.0915 30.0653 14.0404 29.8549 14.0404C29.6745 14.0404 29.5362 14.0764 29.44 14.1486C29.3437 14.2147 29.2956 14.308 29.2956 14.4282C29.2956 14.5725 29.3708 14.6808 29.5211 14.7529C29.6775 14.8251 29.918 14.8972 30.2427 14.9694C30.6155 15.0656 30.9192 15.1618 31.1537 15.258C31.3882 15.3482 31.5926 15.4985 31.767 15.709C31.9474 15.9135 32.0406 16.1901 32.0466 16.5388C32.0466 16.8335 31.9625 17.098 31.7941 17.3325C31.6317 17.561 31.3942 17.7414 31.0815 17.8737C30.7749 18.006 30.4171 18.0722 30.0082 18.0722ZM34.595 15.4835C34.595 14.9604 34.7002 14.5034 34.9107 14.1125C35.1271 13.7217 35.4248 13.421 35.8036 13.2106C36.1884 13.0001 36.6274 12.8949 37.1205 12.8949C37.7519 12.8949 38.278 13.0602 38.6989 13.391C39.1258 13.7217 39.4055 14.1877 39.5377 14.789H37.8962C37.7579 14.4042 37.4903 14.2117 37.0934 14.2117C36.8108 14.2117 36.5853 14.323 36.4169 14.5455C36.2486 14.7619 36.1644 15.0746 36.1644 15.4835C36.1644 15.8924 36.2486 16.2081 36.4169 16.4306C36.5853 16.6471 36.8108 16.7553 37.0934 16.7553C37.4903 16.7553 37.7579 16.5629 37.8962 16.178H39.5377C39.4055 16.7673 39.1258 17.2303 38.6989 17.5671C38.272 17.9038 37.7458 18.0722 37.1205 18.0722C36.6274 18.0722 36.1884 17.9669 35.8036 17.7565C35.4248 17.546 35.1271 17.2454 34.9107 16.8545C34.7002 16.4637 34.595 16.0067 34.595 15.4835ZM42.6538 18.0722C42.1607 18.0722 41.7157 17.9669 41.3188 17.7565C40.928 17.546 40.6183 17.2454 40.3898 16.8545C40.1673 16.4637 40.0561 16.0067 40.0561 15.4835C40.0561 14.9664 40.1703 14.5124 40.3988 14.1215C40.6273 13.7247 40.94 13.421 41.3369 13.2106C41.7338 13.0001 42.1787 12.8949 42.6718 12.8949C43.1649 12.8949 43.6098 13.0001 44.0067 13.2106C44.4036 13.421 44.7163 13.7247 44.9448 14.1215C45.1732 14.5124 45.2875 14.9664 45.2875 15.4835C45.2875 16.0006 45.1702 16.4576 44.9357 16.8545C44.7072 17.2454 44.3915 17.546 43.9887 17.7565C43.5918 17.9669 43.1468 18.0722 42.6538 18.0722ZM42.6538 16.7372C42.9484 16.7372 43.1979 16.629 43.4024 16.4125C43.6128 16.1961 43.7181 15.8864 43.7181 15.4835C43.7181 15.0806 43.6159 14.771 43.4114 14.5545C43.213 14.338 42.9664 14.2298 42.6718 14.2298C42.3711 14.2298 42.1216 14.338 41.9232 14.5545C41.7247 14.7649 41.6255 15.0746 41.6255 15.4835C41.6255 15.8864 41.7217 16.1961 41.9141 16.4125C42.1126 16.629 42.3591 16.7372 42.6538 16.7372ZM52.5277 12.9129C53.1531 12.9129 53.6492 13.1023 54.016 13.4811C54.3888 13.86 54.5752 14.3861 54.5752 15.0596V18H53.0419V15.267C53.0419 14.9423 52.9547 14.6928 52.7803 14.5184C52.6119 14.338 52.3774 14.2478 52.0768 14.2478C51.7761 14.2478 51.5386 14.338 51.3642 14.5184C51.1958 14.6928 51.1117 14.9423 51.1117 15.267V18H49.5783V15.267C49.5783 14.9423 49.4911 14.6928 49.3168 14.5184C49.1484 14.338 48.9139 14.2478 48.6132 14.2478C48.3126 14.2478 48.075 14.338 47.9007 14.5184C47.7323 14.6928 47.6481 14.9423 47.6481 15.267V18H46.1058V12.967H47.6481V13.5984C47.8045 13.3879 48.0089 13.2226 48.2614 13.1023C48.514 12.976 48.7996 12.9129 49.1183 12.9129C49.4971 12.9129 49.8339 12.9941 50.1285 13.1564C50.4292 13.3188 50.6637 13.5503 50.8321 13.851C51.0064 13.5744 51.244 13.3489 51.5446 13.1745C51.8453 13.0001 52.173 12.9129 52.5277 12.9129ZM63.9873 12.9129C64.6127 12.9129 65.1087 13.1023 65.4755 13.4811C65.8484 13.86 66.0348 14.3861 66.0348 15.0596V18H64.5014V15.267C64.5014 14.9423 64.4142 14.6928 64.2398 14.5184C64.0715 14.338 63.837 14.2478 63.5363 14.2478C63.2357 14.2478 62.9981 14.338 62.8238 14.5184C62.6554 14.6928 62.5712 14.9423 62.5712 15.267V18H61.0379V15.267C61.0379 14.9423 60.9507 14.6928 60.7763 14.5184C60.6079 14.338 60.3734 14.2478 60.0728 14.2478C59.7721 14.2478 59.5346 14.338 59.3602 14.5184C59.1918 14.6928 59.1077 14.9423 59.1077 15.267V18H57.5653V12.967H59.1077V13.5984C59.264 13.3879 59.4684 13.2226 59.721 13.1023C59.9735 12.976 60.2592 12.9129 60.5779 12.9129C60.9567 12.9129 61.2934 12.9941 61.5881 13.1564C61.8887 13.3188 62.1232 13.5503 62.2916 13.851C62.466 13.5744 62.7035 13.3489 63.0042 13.1745C63.3048 13.0001 63.6325 12.9129 63.9873 12.9129ZM72.0833 12.967V18H70.5409V17.3145C70.3846 17.537 70.1711 17.7174 69.9005 17.8557C69.636 17.988 69.3413 18.0541 69.0166 18.0541C68.6318 18.0541 68.292 17.9699 67.9974 17.8016C67.7027 17.6272 67.4742 17.3776 67.3119 17.0529C67.1495 16.7282 67.0684 16.3464 67.0684 15.9074V12.967H68.6017V15.7C68.6017 16.0367 68.6889 16.2983 68.8633 16.4847C69.0377 16.6711 69.2722 16.7643 69.5668 16.7643C69.8675 16.7643 70.105 16.6711 70.2794 16.4847C70.4537 16.2983 70.5409 16.0367 70.5409 15.7V12.967H72.0833ZM73.9668 12.4439C73.6963 12.4439 73.4738 12.3657 73.2994 12.2094C73.131 12.047 73.0468 11.8486 73.0468 11.6141C73.0468 11.3736 73.131 11.1751 73.2994 11.0188C73.4738 10.8564 73.6963 10.7753 73.9668 10.7753C74.2314 10.7753 74.4479 10.8564 74.6163 11.0188C74.7906 11.1751 74.8778 11.3736 74.8778 11.6141C74.8778 11.8486 74.7906 12.047 74.6163 12.2094C74.4479 12.3657 74.2314 12.4439 73.9668 12.4439ZM74.7335 12.967V18H73.1912V12.967H74.7335ZM78.6564 16.6921V18H77.8717C77.3124 18 76.8765 17.8647 76.5638 17.5941C76.2511 17.3175 76.0948 16.8695 76.0948 16.2502V14.2478H75.4814V12.967H76.0948V11.7404H77.6371V12.967H78.6473V14.2478H77.6371V16.2682C77.6371 16.4186 77.6732 16.5268 77.7454 16.5929C77.8175 16.6591 77.9378 16.6921 78.1062 16.6921H78.6564ZM79.2088 15.4745C79.2088 14.9574 79.305 14.5034 79.4974 14.1125C79.6959 13.7217 79.9635 13.421 80.3002 13.2106C80.6369 13.0001 81.0128 12.8949 81.4277 12.8949C81.7824 12.8949 82.0921 12.967 82.3567 13.1113C82.6273 13.2557 82.8347 13.4451 82.979 13.6796V12.967H84.5214V18H82.979V17.2874C82.8287 17.522 82.6183 17.7114 82.3477 17.8557C82.0831 18 81.7734 18.0722 81.4186 18.0722C81.0097 18.0722 80.6369 17.9669 80.3002 17.7565C79.9635 17.54 79.6959 17.2363 79.4974 16.8455C79.305 16.4486 79.2088 15.9916 79.2088 15.4745ZM82.979 15.4835C82.979 15.0987 82.8708 14.795 82.6543 14.5725C82.4439 14.35 82.1853 14.2388 81.8786 14.2388C81.572 14.2388 81.3104 14.35 81.0939 14.5725C80.8835 14.789 80.7782 15.0897 80.7782 15.4745C80.7782 15.8593 80.8835 16.166 81.0939 16.3945C81.3104 16.617 81.572 16.7282 81.8786 16.7282C82.1853 16.7282 82.4439 16.617 82.6543 16.3945C82.8708 16.172 82.979 15.8684 82.979 15.4835ZM13.2526 29.4745C13.2526 28.9574 13.3488 28.5034 13.5412 28.1125C13.7396 27.7217 14.0072 27.421 14.3439 27.2106C14.6807 27.0001 15.0565 26.8949 15.4714 26.8949C15.8021 26.8949 16.1028 26.964 16.3734 27.1023C16.65 27.2406 16.8664 27.427 17.0228 27.6615V25.3255H18.5651V32H17.0228V31.2784C16.8785 31.519 16.671 31.7114 16.4004 31.8557C16.1358 32 15.8262 32.0722 15.4714 32.0722C15.0565 32.0722 14.6807 31.9669 14.3439 31.7565C14.0072 31.54 13.7396 31.2363 13.5412 30.8455C13.3488 30.4486 13.2526 29.9916 13.2526 29.4745ZM17.0228 29.4835C17.0228 29.0987 16.9145 28.795 16.6981 28.5725C16.4876 28.35 16.229 28.2388 15.9224 28.2388C15.6157 28.2388 15.3541 28.35 15.1377 28.5725C14.9272 28.789 14.822 29.0897 14.822 29.4745C14.822 29.8593 14.9272 30.166 15.1377 30.3945C15.3541 30.617 15.6157 30.7282 15.9224 30.7282C16.229 30.7282 16.4876 30.617 16.6981 30.3945C16.9145 30.172 17.0228 29.8684 17.0228 29.4835ZM24.4253 29.4023C24.4253 29.5467 24.4163 29.697 24.3982 29.8533H20.9076C20.9317 30.166 21.0309 30.4065 21.2053 30.5749C21.3857 30.7372 21.6052 30.8184 21.8637 30.8184C22.2486 30.8184 22.5161 30.6561 22.6665 30.3314H24.308C24.2239 30.6621 24.0705 30.9597 23.848 31.2243C23.6316 31.4889 23.358 31.6963 23.0273 31.8467C22.6965 31.997 22.3267 32.0722 21.9178 32.0722C21.4248 32.0722 20.9858 31.9669 20.601 31.7565C20.2161 31.546 19.9155 31.2454 19.699 30.8545C19.4825 30.4637 19.3743 30.0067 19.3743 29.4835C19.3743 28.9604 19.4795 28.5034 19.69 28.1125C19.9065 27.7217 20.2071 27.421 20.5919 27.2106C20.9768 27.0001 21.4187 26.8949 21.9178 26.8949C22.4049 26.8949 22.8378 26.9971 23.2167 27.2015C23.5955 27.406 23.8901 27.6976 24.1006 28.0764C24.3171 28.4553 24.4253 28.8972 24.4253 29.4023ZM22.8469 28.9965C22.8469 28.7319 22.7567 28.5214 22.5763 28.3651C22.3959 28.2087 22.1704 28.1306 21.8998 28.1306C21.6412 28.1306 21.4218 28.2057 21.2414 28.3561C21.067 28.5064 20.9587 28.7198 20.9167 28.9965H22.8469ZM24.9323 29.4745C24.9323 28.9574 25.0285 28.5034 25.2209 28.1125C25.4194 27.7217 25.687 27.421 26.0237 27.2106C26.3604 27.0001 26.7362 26.8949 27.1511 26.8949C27.4819 26.8949 27.7825 26.964 28.0531 27.1023C28.3297 27.2406 28.5462 27.427 28.7025 27.6615V25.3255H30.2449V32H28.7025V31.2784C28.5582 31.519 28.3508 31.7114 28.0802 31.8557C27.8156 32 27.5059 32.0722 27.1511 32.0722C26.7362 32.0722 26.3604 31.9669 26.0237 31.7565C25.687 31.54 25.4194 31.2363 25.2209 30.8455C25.0285 30.4486 24.9323 29.9916 24.9323 29.4745ZM28.7025 29.4835C28.7025 29.0987 28.5943 28.795 28.3778 28.5725C28.1674 28.35 27.9088 28.2388 27.6021 28.2388C27.2955 28.2388 27.0339 28.35 26.8174 28.5725C26.607 28.789 26.5017 29.0897 26.5017 29.4745C26.5017 29.8593 26.607 30.166 26.8174 30.3945C27.0339 30.617 27.2955 30.7282 27.6021 30.7282C27.9088 30.7282 28.1674 30.617 28.3778 30.3945C28.5943 30.172 28.7025 29.8684 28.7025 29.4835ZM32.1364 26.4439C31.8658 26.4439 31.6433 26.3657 31.469 26.2094C31.3006 26.047 31.2164 25.8486 31.2164 25.6141C31.2164 25.3736 31.3006 25.1751 31.469 25.0188C31.6433 24.8564 31.8658 24.7753 32.1364 24.7753C32.401 24.7753 32.6175 24.8564 32.7858 25.0188C32.9602 25.1751 33.0474 25.3736 33.0474 25.6141C33.0474 25.8486 32.9602 26.047 32.7858 26.2094C32.6175 26.3657 32.401 26.4439 32.1364 26.4439ZM32.9031 26.967V32H31.3607V26.967H32.9031ZM33.7141 29.4835C33.7141 28.9604 33.8194 28.5034 34.0298 28.1125C34.2463 27.7217 34.544 27.421 34.9228 27.2106C35.3076 27.0001 35.7466 26.8949 36.2396 26.8949C36.871 26.8949 37.3972 27.0602 37.8181 27.391C38.245 27.7217 38.5246 28.1877 38.6569 28.789H37.0153C36.877 28.4042 36.6095 28.2117 36.2126 28.2117C35.93 28.2117 35.7045 28.323 35.5361 28.5455C35.3677 28.7619 35.2836 29.0746 35.2836 29.4835C35.2836 29.8924 35.3677 30.2081 35.5361 30.4306C35.7045 30.6471 35.93 30.7553 36.2126 30.7553C36.6095 30.7553 36.877 30.5629 37.0153 30.178H38.6569C38.5246 30.7673 38.245 31.2303 37.8181 31.5671C37.3912 31.9038 36.865 32.0722 36.2396 32.0722C35.7466 32.0722 35.3076 31.9669 34.9228 31.7565C34.544 31.546 34.2463 31.2454 34.0298 30.8545C33.8194 30.4637 33.7141 30.0067 33.7141 29.4835ZM39.1753 29.4745C39.1753 28.9574 39.2715 28.5034 39.4639 28.1125C39.6623 27.7217 39.9299 27.421 40.2666 27.2106C40.6034 27.0001 40.9792 26.8949 41.3941 26.8949C41.7489 26.8949 42.0586 26.967 42.3231 27.1113C42.5937 27.2557 42.8012 27.4451 42.9455 27.6796V26.967H44.4878V32H42.9455V31.2874C42.7952 31.522 42.5847 31.7114 42.3141 31.8557C42.0495 32 41.7399 32.0722 41.3851 32.0722C40.9762 32.0722 40.6034 31.9669 40.2666 31.7565C39.9299 31.54 39.6623 31.2363 39.4639 30.8455C39.2715 30.4486 39.1753 29.9916 39.1753 29.4745ZM42.9455 29.4835C42.9455 29.0987 42.8373 28.795 42.6208 28.5725C42.4103 28.35 42.1518 28.2388 41.8451 28.2388C41.5384 28.2388 41.2768 28.35 41.0604 28.5725C40.8499 28.789 40.7447 29.0897 40.7447 29.4745C40.7447 29.8593 40.8499 30.166 41.0604 30.3945C41.2768 30.617 41.5384 30.7282 41.8451 30.7282C42.1518 30.7282 42.4103 30.617 42.6208 30.3945C42.8373 30.172 42.9455 29.8684 42.9455 29.4835ZM47.7955 30.7553C48.1923 30.7553 48.4599 30.5629 48.5982 30.178H50.2398C50.1255 30.6891 49.897 31.1071 49.5543 31.4318C49.2115 31.7565 48.7846 31.9579 48.2735 32.0361V32.3698C48.5862 32.3698 48.8598 32.454 49.0943 32.6224C49.3288 32.7967 49.4461 33.0553 49.4461 33.398C49.4461 33.7408 49.3228 33.9994 49.0762 34.1737C48.8297 34.3541 48.5351 34.4443 48.1923 34.4443H46.8033V33.5965H47.9849C48.1051 33.5965 48.1953 33.5784 48.2555 33.5424C48.3156 33.5063 48.3457 33.4462 48.3457 33.362C48.3457 33.2778 48.3156 33.2177 48.2555 33.1816C48.1953 33.1515 48.1051 33.1365 47.9849 33.1365H47.3445V32.0361C46.7251 31.9399 46.229 31.6663 45.8562 31.2153C45.4834 30.7583 45.297 30.181 45.297 29.4835C45.297 28.9604 45.4022 28.5034 45.6127 28.1125C45.8292 27.7217 46.1268 27.421 46.5056 27.2106C46.8905 27.0001 47.3294 26.8949 47.8225 26.8949C48.4539 26.8949 48.98 27.0602 49.401 27.391C49.8279 27.7217 50.1075 28.1877 50.2398 28.789H48.5982C48.4599 28.4042 48.1923 28.2117 47.7955 28.2117C47.5128 28.2117 47.2873 28.323 47.119 28.5455C46.9506 28.7619 46.8664 29.0746 46.8664 29.4835C46.8664 29.8924 46.9506 30.2081 47.119 30.4306C47.2873 30.6471 47.5128 30.7553 47.7955 30.7553ZM50.7581 29.4745C50.7581 28.9574 50.8543 28.5034 51.0468 28.1125C51.2452 27.7217 51.5128 27.421 51.8495 27.2106C52.1862 27.0001 52.5621 26.8949 52.977 26.8949C53.3317 26.8949 53.6414 26.967 53.906 27.1113C54.1766 27.2557 54.384 27.4451 54.5284 27.6796V26.967H56.0707V32H54.5284V31.2874C54.378 31.522 54.1676 31.7114 53.897 31.8557C53.6324 32 53.3227 32.0722 52.968 32.0722C52.5591 32.0722 52.1862 31.9669 51.8495 31.7565C51.5128 31.54 51.2452 31.2363 51.0468 30.8455C50.8543 30.4486 50.7581 29.9916 50.7581 29.4745ZM54.5284 29.4835C54.5284 29.0987 54.4201 28.795 54.2036 28.5725C53.9932 28.35 53.7346 28.2388 53.428 28.2388C53.1213 28.2388 52.8597 28.35 52.6432 28.5725C52.4328 28.789 52.3276 29.0897 52.3276 29.4745C52.3276 29.8593 52.4328 30.166 52.6432 30.3945C52.8597 30.617 53.1213 30.7282 53.428 30.7282C53.7346 30.7282 53.9932 30.617 54.2036 30.3945C54.4201 30.172 54.5284 29.8684 54.5284 29.4835ZM51.7954 26.5431C51.9397 25.6532 52.3546 25.2082 53.0401 25.2082C53.1724 25.2082 53.2866 25.2292 53.3829 25.2713C53.4851 25.3074 53.6083 25.3645 53.7527 25.4427C53.8609 25.5028 53.9481 25.5479 54.0142 25.578C54.0804 25.6021 54.1495 25.6141 54.2217 25.6141C54.4442 25.6141 54.5735 25.4788 54.6095 25.2082H55.4033C55.2589 26.0981 54.844 26.5431 54.1585 26.5431C54.0263 26.5431 53.909 26.5251 53.8068 26.489C53.7106 26.4469 53.5903 26.3868 53.446 26.3086C53.3378 26.2485 53.2506 26.2064 53.1844 26.1823C53.1183 26.1523 53.0491 26.1372 52.977 26.1372C52.7545 26.1372 52.6222 26.2725 52.5801 26.5431H51.7954ZM59.4775 32.0722C58.9845 32.0722 58.5395 31.9669 58.1426 31.7565C57.7518 31.546 57.4421 31.2454 57.2136 30.8545C56.9911 30.4637 56.8799 30.0067 56.8799 29.4835C56.8799 28.9664 56.9941 28.5124 57.2226 28.1215C57.4511 27.7247 57.7638 27.421 58.1607 27.2106C58.5575 27.0001 59.0025 26.8949 59.4956 26.8949C59.9887 26.8949 60.4336 27.0001 60.8305 27.2106C61.2274 27.421 61.54 27.7247 61.7685 28.1215C61.997 28.5124 62.1113 28.9664 62.1113 29.4835C62.1113 30.0006 61.994 30.4576 61.7595 30.8545C61.531 31.2454 61.2153 31.546 60.8124 31.7565C60.4156 31.9669 59.9706 32.0722 59.4775 32.0722ZM59.4775 30.7372C59.7722 30.7372 60.0217 30.629 60.2262 30.4125C60.4366 30.1961 60.5419 29.8864 60.5419 29.4835C60.5419 29.0806 60.4396 28.771 60.2352 28.5545C60.0368 28.338 59.7902 28.2298 59.4956 28.2298C59.1949 28.2298 58.9454 28.338 58.7469 28.5545C58.5485 28.7649 58.4493 29.0746 58.4493 29.4835C58.4493 29.8864 58.5455 30.1961 58.7379 30.4125C58.9364 30.629 59.1829 30.7372 59.4775 30.7372ZM69.5853 29.4023C69.5853 29.5467 69.5762 29.697 69.5582 29.8533H66.0676C66.0917 30.166 66.1909 30.4065 66.3652 30.5749C66.5456 30.7372 66.7651 30.8184 67.0237 30.8184C67.4085 30.8184 67.6761 30.6561 67.8264 30.3314H69.468C69.3838 30.6621 69.2305 30.9597 69.008 31.2243C68.7915 31.4889 68.5179 31.6963 68.1872 31.8467C67.8565 31.997 67.4867 32.0722 67.0778 32.0722C66.5847 32.0722 66.1458 31.9669 65.7609 31.7565C65.3761 31.546 65.0754 31.2454 64.859 30.8545C64.6425 30.4637 64.5343 30.0067 64.5343 29.4835C64.5343 28.9604 64.6395 28.5034 64.8499 28.1125C65.0664 27.7217 65.3671 27.421 65.7519 27.2106C66.1368 27.0001 66.5787 26.8949 67.0778 26.8949C67.5649 26.8949 67.9978 26.9971 68.3766 27.2015C68.7555 27.406 69.0501 27.6976 69.2606 28.0764C69.477 28.4553 69.5853 28.8972 69.5853 29.4023ZM68.0068 28.9965C68.0068 28.7319 67.9166 28.5214 67.7362 28.3651C67.5558 28.2087 67.3304 28.1306 67.0598 28.1306C66.8012 28.1306 66.5817 28.2057 66.4013 28.3561C66.2269 28.5064 66.1187 28.7198 66.0766 28.9965H68.0068ZM77.0547 29.4023C77.0547 29.5467 77.0457 29.697 77.0276 29.8533H73.537C73.5611 30.166 73.6603 30.4065 73.8347 30.5749C74.015 30.7372 74.2345 30.8184 74.4931 30.8184C74.8779 30.8184 75.1455 30.6561 75.2958 30.3314H76.9374C76.8532 30.6621 76.6999 30.9597 76.4774 31.2243C76.2609 31.4889 75.9873 31.6963 75.6566 31.8467C75.3259 31.997 74.9561 32.0722 74.5472 32.0722C74.0541 32.0722 73.6152 31.9669 73.2303 31.7565C72.8455 31.546 72.5448 31.2454 72.3284 30.8545C72.1119 30.4637 72.0037 30.0067 72.0037 29.4835C72.0037 28.9604 72.1089 28.5034 72.3194 28.1125C72.5358 27.7217 72.8365 27.421 73.2213 27.2106C73.6062 27.0001 74.0481 26.8949 74.5472 26.8949C75.0343 26.8949 75.4672 26.9971 75.846 27.2015C76.2249 27.406 76.5195 27.6976 76.73 28.0764C76.9464 28.4553 77.0547 28.8972 77.0547 29.4023ZM75.4762 28.9965C75.4762 28.7319 75.386 28.5214 75.2056 28.3651C75.0253 28.2087 74.7998 28.1306 74.5292 28.1306C74.2706 28.1306 74.0511 28.2057 73.8707 28.3561C73.6964 28.5064 73.5881 28.7198 73.546 28.9965H75.4762ZM79.9158 32.0722C79.4769 32.0722 79.086 31.997 78.7433 31.8467C78.4005 31.6963 78.1299 31.4919 77.9315 31.2333C77.7331 30.9688 77.6218 30.6741 77.5978 30.3494H79.1221C79.1401 30.5238 79.2213 30.6651 79.3656 30.7733C79.5099 30.8816 79.6873 30.9357 79.8978 30.9357C80.0902 30.9357 80.2375 30.8996 80.3397 30.8274C80.448 30.7493 80.5021 30.6501 80.5021 30.5298C80.5021 30.3855 80.4269 30.2803 80.2766 30.2141C80.1263 30.1419 79.8827 30.0638 79.546 29.9796C79.1852 29.8954 78.8846 29.8082 78.644 29.718C78.4035 29.6218 78.1961 29.4745 78.0217 29.2761C77.8473 29.0716 77.7601 28.798 77.7601 28.4553C77.7601 28.1666 77.8383 27.9051 77.9946 27.6706C78.157 27.43 78.3915 27.2406 78.6982 27.1023C79.0108 26.964 79.3806 26.8949 79.8076 26.8949C80.439 26.8949 80.935 27.0512 81.2958 27.3639C81.6626 27.6766 81.8731 28.0915 81.9272 28.6086H80.5021C80.478 28.4342 80.3999 28.2959 80.2676 28.1937C80.1413 28.0915 79.9729 28.0404 79.7625 28.0404C79.5821 28.0404 79.4438 28.0764 79.3476 28.1486C79.2514 28.2147 79.2033 28.308 79.2033 28.4282C79.2033 28.5725 79.2784 28.6808 79.4287 28.7529C79.5851 28.8251 79.8256 28.8972 80.1503 28.9694C80.5231 29.0656 80.8268 29.1618 81.0613 29.258C81.2958 29.3482 81.5003 29.4985 81.6746 29.709C81.855 29.9135 81.9482 30.1901 81.9543 30.5388C81.9543 30.8335 81.8701 31.098 81.7017 31.3325C81.5393 31.561 81.3018 31.7414 80.9891 31.8737C80.6825 32.006 80.3247 32.0722 79.9158 32.0722ZM85.703 30.6921V32H84.9183C84.3591 32 83.9231 31.8647 83.6104 31.5941C83.2977 31.3175 83.1414 30.8695 83.1414 30.2502V28.2478H82.5281V26.967H83.1414V25.7404H84.6838V26.967H85.694V28.2478H84.6838V30.2682C84.6838 30.4186 84.7198 30.5268 84.792 30.5929C84.8642 30.6591 84.9844 30.6921 85.1528 30.6921H85.703ZM91.5319 26.967V32H89.9896V31.3145C89.8332 31.537 89.6198 31.7174 89.3492 31.8557C89.0846 31.988 88.79 32.0541 88.4653 32.0541C88.0804 32.0541 87.7407 31.9699 87.446 31.8016C87.1514 31.6272 86.9229 31.3776 86.7605 31.0529C86.5982 30.7282 86.517 30.3464 86.517 29.9074V26.967H88.0503V29.7C88.0503 30.0367 88.1375 30.2983 88.3119 30.4847C88.4863 30.6711 88.7208 30.7643 89.0155 30.7643C89.3161 30.7643 89.5536 30.6711 89.728 30.4847C89.9024 30.2983 89.9896 30.0367 89.9896 29.7V26.967H91.5319ZM92.3331 29.4745C92.3331 28.9574 92.4293 28.5034 92.6218 28.1125C92.8202 27.7217 93.0878 27.421 93.4245 27.2106C93.7612 27.0001 94.1371 26.8949 94.552 26.8949C94.8827 26.8949 95.1833 26.964 95.4539 27.1023C95.7305 27.2406 95.947 27.427 96.1034 27.6615V25.3255H97.6457V32H96.1034V31.2784C95.959 31.519 95.7516 31.7114 95.481 31.8557C95.2164 32 94.9067 32.0722 94.552 32.0722C94.1371 32.0722 93.7612 31.9669 93.4245 31.7565C93.0878 31.54 92.8202 31.2363 92.6218 30.8455C92.4293 30.4486 92.3331 29.9916 92.3331 29.4745ZM96.1034 29.4835C96.1034 29.0987 95.9951 28.795 95.7786 28.5725C95.5682 28.35 95.3096 28.2388 95.003 28.2388C94.6963 28.2388 94.4347 28.35 94.2182 28.5725C94.0078 28.789 93.9026 29.0897 93.9026 29.4745C93.9026 29.8593 94.0078 30.166 94.2182 30.3945C94.4347 30.617 94.6963 30.7282 95.003 30.7282C95.3096 30.7282 95.5682 30.617 95.7786 30.3945C95.9951 30.172 96.1034 29.8684 96.1034 29.4835ZM101.053 32.0722C100.559 32.0722 100.114 31.9669 99.7176 31.7565C99.3268 31.546 99.0171 31.2454 98.7886 30.8545C98.5661 30.4637 98.4549 30.0067 98.4549 29.4835C98.4549 28.9664 98.5691 28.5124 98.7976 28.1215C99.0261 27.7247 99.3388 27.421 99.7357 27.2106C100.133 27.0001 100.578 26.8949 101.071 26.8949C101.564 26.8949 102.009 27.0001 102.405 27.2106C102.802 27.421 103.115 27.7247 103.344 28.1215C103.572 28.5124 103.686 28.9664 103.686 29.4835C103.686 30.0006 103.569 30.4576 103.335 30.8545C103.106 31.2454 102.79 31.546 102.387 31.7565C101.991 31.9669 101.546 32.0722 101.053 32.0722ZM101.053 30.7372C101.347 30.7372 101.597 30.629 101.801 30.4125C102.012 30.1961 102.117 29.8864 102.117 29.4835C102.117 29.0806 102.015 28.771 101.81 28.5545C101.612 28.338 101.365 28.2298 101.071 28.2298C100.77 28.2298 100.52 28.338 100.322 28.5545C100.124 28.7649 100.024 29.0746 100.024 29.4835C100.024 29.8864 100.121 30.1961 100.313 30.4125C100.511 30.629 100.758 30.7372 101.053 30.7372ZM106.164 30.5749L105.163 33.1635H104.18L104.703 30.5749H106.164Z" fill="white"/>
</svg>
