<svg width="300" height="225" viewBox="0 0 300 225" fill="none" xmlns="http://www.w3.org/2000/svg">
<rect width="300" height="225" fill="white"/>
<path d="M66.4546 82.9073C69.3034 81.9761 72.2676 80.6717 75.347 78.9939C78.4734 77.2548 80.7612 75.6277 82.2106 74.1126L83.0887 80.6851L90.2292 79.7311L90.5977 82.49C89.7863 82.5984 88.5692 82.761 86.9464 82.9778C85.3235 83.1946 84.1334 83.3536 83.3761 83.4548C85.4031 98.2153 86.6352 107.026 87.0723 109.885C87.4553 112.752 87.9878 114.884 88.6698 116.279C89.4059 117.667 90.3545 118.174 91.5157 117.798C93.0663 117.041 93.4462 115.145 92.6556 112.113C91.8578 109.026 90.4254 106.547 88.3585 104.675C91.2864 102.688 93.7171 102.748 95.6507 104.858C97.4544 106.819 98.0447 109.383 97.4217 112.55C96.7158 116.333 94.457 119.002 90.6454 120.558C89.4446 121.048 88.1446 121.415 86.7454 121.657C78.3607 122.777 73.5469 118.685 72.3039 109.381C72.1087 107.92 71.8486 105.973 71.5234 103.538C71.245 101.043 71.0102 99.2848 70.8188 98.2642C70.6814 97.2364 70.4701 95.8606 70.1848 94.1368C69.9535 92.4058 69.7296 91.1418 69.513 90.3448C69.3505 89.5406 69.1158 88.6084 68.809 87.5482C68.5022 86.488 68.1666 85.6243 67.8021 84.9573C67.4305 84.2361 66.9813 83.5528 66.4546 82.9073ZM135.511 100.441C135.529 101.815 135.351 103.16 134.977 104.477C134.649 105.732 134.175 106.924 133.555 108.053C132.935 109.182 132.169 110.248 131.256 111.25C130.398 112.246 129.391 113.151 128.233 113.967C127.13 114.775 125.927 115.459 124.625 116.018C119.411 118.201 114.259 118.174 109.17 115.935C106.249 114.674 103.803 112.853 101.833 110.474C99.9104 108.033 98.5717 105.431 97.8173 102.669C97.1169 99.899 96.9268 97.0337 97.247 94.0727C97.56 91.0577 98.3491 88.3094 99.6143 85.8278C100.926 83.285 102.814 81.1332 105.277 79.3727C107.732 77.558 110.529 76.4411 113.666 76.0219C118.535 75.3715 122.958 76.5425 126.937 79.5348C130.915 82.5271 133.464 86.5638 134.584 91.645L107.807 95.2223C109.513 97.6922 111.707 99.6842 114.387 101.198C117.113 102.651 120.302 103.436 123.951 103.554C127.601 103.672 131.454 102.635 135.511 100.441ZM105.11 82.4508C104.111 82.8045 103.684 83.9352 103.828 85.843C103.966 87.6966 104.764 89.9577 106.221 92.626L117.175 91.1626C115.75 88.3247 113.764 86.0297 111.218 84.2777C108.671 82.5256 106.635 81.9167 105.11 82.4508ZM145.205 77.0942C143.788 77.6139 143.475 79.3901 144.265 82.4229C145.323 86.6314 147.659 90.3111 151.274 93.4622C157.247 98.6106 164.192 99.6926 172.107 96.708L175.607 95.0842C175.625 96.4582 175.447 97.8035 175.072 99.1199C174.744 100.375 174.27 101.567 173.65 102.696C173.03 103.825 172.264 104.891 171.352 105.894C170.494 106.889 169.486 107.795 168.329 108.61C167.225 109.418 166.023 110.102 164.721 110.661C159.507 112.845 154.355 112.817 149.266 110.579C146.752 109.483 144.569 107.985 142.719 106.085C140.915 104.124 139.584 101.989 138.725 99.6811C137.92 97.366 137.405 94.957 137.181 92.4542C136.95 89.8973 137.196 87.4142 137.92 85.005C138.699 82.5885 139.726 80.3865 141.002 78.399C142.325 76.3502 144.108 74.6529 146.351 73.3071C148.587 71.9073 151.057 71.0267 153.761 70.6653C157.71 70.1378 160.538 71.109 162.245 73.5789C163.951 76.0489 164.282 78.7302 163.237 81.6228C162.238 84.4541 160.36 86.054 157.601 86.4226C156.446 83.5486 154.473 81.1418 151.681 79.2023C148.943 77.2555 146.785 76.5528 145.205 77.0942ZM190.658 89.522C192.114 98.3574 193.471 103.985 194.731 106.404L176.393 108.854C177.455 104.858 177.188 96.8826 175.591 84.9277C173.994 72.9728 172.191 65.4502 170.181 62.3601C173.052 61.5911 176.227 60.4236 179.707 58.8576C183.233 57.2301 185.921 55.7148 187.771 54.3114C187.422 56.2301 187.419 59.9195 187.763 65.3795C188.161 70.8323 188.807 76.6926 189.699 82.9603C190.138 78.8273 190.833 75.3757 191.784 72.6057C192.729 69.7817 194.122 67.6409 195.964 66.1834C196.859 65.4583 197.917 64.9315 199.139 64.603C200.355 64.2204 201.637 64.1317 202.986 64.3369C204.381 64.4808 205.682 64.9403 206.886 65.7154C208.084 66.4363 209.157 67.6695 210.106 69.4147C211.048 71.1059 211.685 73.1957 212.017 75.684C212.039 75.8463 212.165 76.7929 212.397 78.524C212.628 80.255 212.816 81.6615 212.96 82.7433C213.098 83.7711 213.3 85.2858 213.567 87.2873C213.882 89.2275 214.187 90.8936 214.483 92.2856C214.779 93.6776 215.086 95.1507 215.404 96.705C215.776 98.2521 216.176 99.6026 216.606 100.757C217.028 101.856 217.445 102.709 217.856 103.315L200.167 105.678C200.74 104.61 200.907 101.532 200.668 96.4437C200.475 91.2938 199.868 86.3369 198.846 81.5731C197.817 76.7552 196.592 74.3861 195.171 74.4658C193.974 74.5707 193.053 75.7124 192.408 77.8908C191.763 80.0693 191.27 82.9708 190.928 86.5953C190.827 87.4897 190.737 88.4653 190.658 89.522Z" fill="black"/>
<path d="M103.71 122.173C103.053 124.262 102.546 127.485 102.188 131.842C101.89 136.199 101.711 139.929 101.651 143.033C101.651 146.136 101.681 150.762 101.74 156.91C101.8 163.057 101.83 166.489 101.83 167.205C101.83 177.471 97.2043 182.604 87.953 182.604C81.7457 182.604 77.508 180.843 75.24 177.322C73.7478 174.935 73.6285 172.726 74.8819 170.697C76.2546 168.489 78.5227 167.862 81.686 168.817C82.3426 169.056 82.9991 169.324 83.6556 169.623C79.8358 174.159 78.8211 177.143 80.6117 178.575C81.2085 178.993 81.9248 179.172 82.7604 179.113C83.6556 179.053 84.4017 178.277 84.9986 176.785C85.5954 175.233 85.8939 172.965 85.8939 169.981C85.8939 169.682 85.9237 167.414 85.9834 163.176C86.0431 158.939 86.0431 155.596 85.9834 153.149C85.9834 150.643 85.9237 147.509 85.8043 143.749C85.685 139.929 85.4164 136.736 84.9986 134.169C84.6405 131.603 84.163 129.663 83.5661 128.35C86.7295 127.932 90.3106 127.126 94.3095 125.933C98.3681 124.679 101.502 123.426 103.71 122.173ZM150.604 122.173C149.291 125.515 148.545 132.528 148.366 143.212C148.246 153.895 148.992 161.565 150.604 166.22H131.087C132.758 162.341 133.623 156.193 133.683 147.778L133.594 148.046C132.46 152.582 131.176 156.342 129.744 159.327C128.311 162.251 126.461 164.37 124.193 165.683C122.82 166.519 121.239 167.026 119.448 167.205C117.658 167.325 115.837 166.937 113.987 166.041C112.196 165.086 110.853 163.594 109.958 161.565C108.943 159.357 108.347 156.163 108.168 151.985C107.988 147.807 107.78 143.361 107.541 138.646C107.302 133.931 106.616 130.021 105.482 126.918C112.346 126.082 118.225 124.5 123.119 122.173V141.69C123.119 151.896 124.163 156.969 126.252 156.91C127.625 156.79 128.789 155.656 129.744 153.507C130.758 151.299 131.713 148.285 132.609 144.465C132.907 143.271 133.176 142.048 133.415 140.794C132.997 133.752 132.221 129.126 131.087 126.918C134.19 126.619 137.682 125.992 141.562 125.037C145.441 124.082 148.455 123.127 150.604 122.173ZM172.842 166.22H152.609C154.339 162.46 155.205 154.641 155.205 142.764C155.205 130.887 154.339 123.277 152.609 119.934C155.832 119.576 159.443 118.86 163.441 117.786C167.5 116.711 170.634 115.577 172.842 114.384C171.529 118.144 170.842 126.798 170.783 140.347C170.723 153.836 171.409 162.46 172.842 166.22ZM195.403 107.132C194.09 111.31 193.404 121.128 193.344 136.587C193.284 152.045 193.971 161.923 195.403 166.22H175.17C176.901 161.923 177.766 153 177.766 139.451C177.766 125.843 176.901 117.159 175.17 113.399C178.393 112.981 182.004 112.145 186.003 110.892C190.061 109.639 193.195 108.385 195.403 107.132ZM217.071 166.22H197.554C198.867 163.236 199.673 159.745 199.971 155.746C200.27 151.687 200.15 148.046 199.613 144.823C199.136 141.54 198.449 139.004 197.554 137.213C201.195 137.213 204.776 136.825 208.297 136.049C211.878 135.273 214.803 134.11 217.071 132.558C215.758 135.9 215.012 141.182 214.833 148.404C214.713 155.626 215.46 161.565 217.071 166.22ZM200.419 130.32C198.569 128.887 197.643 127.156 197.643 125.127C197.643 123.098 198.569 121.367 200.419 119.934C202.329 118.502 204.627 117.786 207.312 117.786C209.998 117.786 212.296 118.502 214.206 119.934C216.116 121.367 217.071 123.098 217.071 125.127C217.071 127.156 216.116 128.887 214.206 130.32C212.296 131.692 209.998 132.379 207.312 132.379C204.627 132.379 202.329 131.692 200.419 130.32Z" fill="black"/>
<g filter="url(#filter0_d_9_79)">
<path fill-rule="evenodd" clip-rule="evenodd" d="M81.4814 138.833L81.4791 138.833L81.472 138.833L81.4602 138.834L81.4437 138.834L81.4225 138.835L81.3966 138.837L81.3661 138.839L81.3309 138.841L81.2911 138.845L81.2467 138.849L81.1977 138.854L81.1443 138.86L81.0863 138.867L81.0239 138.876L80.9571 138.886L80.8859 138.897L80.8105 138.909L80.7307 138.924L80.6468 138.939L80.5588 138.957L80.4666 138.976L80.3705 138.997L80.2703 139.02L80.1664 139.045L80.0586 139.072L79.947 139.101L79.8318 139.132L79.7131 139.165L79.5908 139.201L79.4651 139.239L79.3361 139.28L79.2038 139.323L79.0684 139.369L78.93 139.417L78.7885 139.468L78.6442 139.521L78.4971 139.578L78.3474 139.636L78.1951 139.698L78.0403 139.763L77.8831 139.83L77.7236 139.9L77.562 139.974L77.3984 140.05L77.2328 140.129L77.0653 140.21L76.8962 140.295L76.7254 140.383L76.5531 140.474L76.3794 140.568L76.2044 140.664L76.0283 140.764L75.851 140.867L75.6729 140.972L75.4939 141.081L75.3141 141.192L75.1338 141.307L74.9529 141.424L74.7717 141.544L74.5901 141.667L74.4084 141.792L74.2267 141.921L74.045 142.052L73.8634 142.186L73.6822 142.322L73.5012 142.461L73.3208 142.603L73.141 142.747L72.9618 142.893L72.7834 143.042L72.6059 143.193L72.4294 143.346L72.2539 143.501L72.0797 143.659L71.9067 143.818L71.7351 143.98L71.5649 144.143L71.3962 144.309L71.2292 144.475L71.0639 144.644L70.9004 144.814L70.7387 144.985L70.579 145.158L70.4213 145.333L70.2657 145.508L70.1123 145.684L69.9611 145.862L69.8122 146.04L69.6656 146.219L69.5214 146.399L69.3798 146.579L69.2406 146.76L69.104 146.942L68.97 147.123L68.8387 147.305L68.7101 147.486L68.5842 147.668L68.4611 147.85L68.3409 148.031L68.2234 148.212L68.1089 148.392L67.9972 148.572L67.8885 148.751L67.7826 148.929L67.6797 149.107L67.5798 149.283L67.4828 149.458L67.3888 149.632L67.2978 149.804L67.2097 149.975L67.1246 150.144L67.0425 150.312L66.9632 150.478L66.887 150.642L66.8136 150.803L66.7431 150.963L66.6755 151.12L66.6107 151.275L66.5488 151.428L66.4896 151.578L66.4332 151.725L66.3795 151.87L66.3284 152.011L66.28 152.15L66.2342 152.286L66.1909 152.418L66.1501 152.547L66.1117 152.673L66.0757 152.796L66.042 152.915L66.0105 153.031L65.9813 153.142L65.9542 153.25L65.9291 153.355L65.906 153.455L65.8849 153.552L65.8656 153.644L65.848 153.732L65.8322 153.817L65.818 153.897L65.8053 153.973L65.794 154.044L65.7842 154.111L65.7756 154.174L65.7682 154.232L65.762 154.286L65.7567 154.335L65.7524 154.38L65.749 154.42L65.7463 154.456L65.7442 154.487L65.7427 154.513L65.7417 154.535L65.7411 154.552L65.7408 154.564L65.7407 154.571L65.7407 154.574L65.7407 154.572L65.7406 154.565L65.7403 154.554L65.7397 154.538L65.7388 154.517L65.7374 154.491L65.7355 154.461L65.7329 154.426L65.7296 154.387L65.7254 154.343L65.7203 154.294L65.7142 154.241L65.707 154.184L65.6986 154.122L65.689 154.055L65.678 153.984L65.6655 153.909L65.6515 153.83L65.636 153.746L65.6187 153.658L65.5997 153.567L65.5788 153.471L65.5561 153.371L65.5313 153.267L65.5045 153.16L65.4756 153.049L65.4445 152.934L65.4112 152.815L65.3756 152.693L65.3376 152.568L65.2971 152.439L65.2542 152.307L65.2088 152.172L65.1608 152.034L65.1102 151.892L65.0569 151.748L65.0009 151.601L64.9422 151.452L64.8807 151.3L64.8164 151.145L64.7492 150.988L64.6792 150.829L64.6063 150.668L64.5305 150.504L64.4517 150.339L64.37 150.171L64.2854 150.002L64.1978 149.832L64.1072 149.659L64.0137 149.486L63.9172 149.311L63.8177 149.135L63.7153 148.958L63.61 148.78L63.5017 148.601L63.3905 148.421L63.2764 148.241L63.1594 148.06L63.0396 147.879L62.9169 147.697L62.7915 147.515L62.6633 147.334L62.5324 147.152L62.3989 146.97L62.2627 146.789L62.1239 146.608L61.9827 146.428L61.8389 146.248L61.6927 146.069L61.5442 145.89L61.3933 145.713L61.2402 145.536L61.085 145.36L60.9276 145.186L60.7682 145.013L60.6068 144.841L60.4436 144.671L60.2786 144.502L60.1118 144.335L59.9434 144.17L59.7735 144.006L59.6021 143.844L59.4293 143.684L59.2552 143.526L59.08 143.371L58.9036 143.217L58.7263 143.066L58.548 142.916L58.369 142.77L58.1892 142.625L58.0089 142.483L57.828 142.344L57.6468 142.207L57.4653 142.073L57.2836 141.942L57.1019 141.813L56.9201 141.687L56.7386 141.563L56.5573 141.443L56.3764 141.325L56.1959 141.21L56.0161 141.099L55.837 140.99L55.6586 140.883L55.4813 140.78L55.3049 140.68L55.1298 140.583L54.9558 140.489L54.7833 140.397L54.6123 140.309L54.4428 140.224L54.2751 140.141L54.1092 140.062L53.9452 139.985L53.7833 139.912L53.6235 139.841L53.466 139.773L53.3108 139.708L53.1581 139.646L53.0079 139.587L52.8604 139.53L52.7156 139.476L52.5737 139.425L52.4348 139.376L52.2989 139.33L52.1661 139.287L52.0366 139.246L51.9104 139.207L51.7875 139.171L51.6682 139.137L51.5524 139.105L51.4403 139.076L51.3319 139.049L51.2273 139.024L51.1266 139L51.0298 138.979L50.937 138.96L50.8483 138.942L50.7637 138.926L50.6833 138.912L50.6072 138.899L50.5353 138.887L50.4678 138.877L50.4047 138.869L50.346 138.861L50.2918 138.855L50.2422 138.85L50.1971 138.845L50.1565 138.842L50.1206 138.839L50.0893 138.837L50.0627 138.835L50.0407 138.834L50.0235 138.834L50.0109 138.833L50.0031 138.833L50 138.833L50.0016 138.833L50.0079 138.833L50.019 138.833L50.0347 138.832L50.0552 138.831L50.0803 138.83L50.1101 138.828L50.1446 138.826L50.1836 138.822L50.2273 138.818L50.2755 138.813L50.3283 138.807L50.3855 138.8L50.4472 138.792L50.5133 138.782L50.5838 138.771L50.6586 138.759L50.7376 138.745L50.8209 138.73L50.9083 138.713L50.9998 138.694L51.0953 138.673L51.1948 138.65L51.2982 138.626L51.4054 138.599L51.5163 138.571L51.6309 138.54L51.7491 138.506L51.8709 138.471L51.996 138.433L52.1245 138.393L52.2562 138.35L52.3912 138.305L52.5291 138.257L52.6701 138.207L52.814 138.154L52.9606 138.098L53.1099 138.039L53.2619 137.978L53.4163 137.914L53.5731 137.847L53.7322 137.777L53.8934 137.705L54.0568 137.629L54.2221 137.551L54.3892 137.469L54.5581 137.385L54.7287 137.297L54.9007 137.207L55.0742 137.114L55.249 137.018L55.425 136.918L55.602 136.816L55.7801 136.711L55.9589 136.603L56.1386 136.492L56.3188 136.378L56.4996 136.261L56.6808 136.142L56.8623 136.019L57.044 135.894L57.2257 135.766L57.4074 135.635L57.589 135.502L57.7703 135.366L57.9513 135.228L58.1318 135.087L58.3118 134.943L58.4911 134.797L58.6696 134.649L58.8473 134.498L59.0239 134.345L59.1995 134.19L59.374 134.033L59.5472 133.873L59.7191 133.712L59.8895 133.549L60.0584 133.384L60.2257 133.218L60.3912 133.049L60.5551 132.88L60.717 132.708L60.877 132.536L61.0351 132.362L61.191 132.187L61.3448 132.01L61.4963 131.833L61.6456 131.655L61.7926 131.476L61.9371 131.296L62.0792 131.116L62.2188 130.935L62.3558 130.754L62.4902 130.572L62.6219 130.391L62.751 130.209L62.8773 130.027L63.0008 129.846L63.1215 129.664L63.2394 129.483L63.3544 129.303L63.4666 129.123L63.5758 128.944L63.6821 128.765L63.7854 128.588L63.8858 128.411L63.9833 128.236L64.0778 128.062L64.1693 127.89L64.2578 127.718L64.3434 127.549L64.426 127.381L64.5057 127.215L64.5824 127.051L64.6563 126.889L64.7272 126.729L64.7953 126.571L64.8605 126.416L64.9229 126.263L64.9825 126.112L65.0394 125.965L65.0935 125.82L65.145 125.677L65.1938 125.538L65.24 125.402L65.2837 125.269L65.325 125.139L65.3637 125.013L65.4001 124.89L65.4342 124.77L65.466 124.654L65.4956 124.542L65.523 124.433L65.5484 124.328L65.5718 124.227L65.5932 124.13L65.6128 124.037L65.6306 123.948L65.6468 123.863L65.6612 123.782L65.6742 123.706L65.6856 123.633L65.6957 123.566L65.7045 123.502L65.712 123.443L65.7185 123.389L65.7239 123.338L65.7283 123.293L65.7319 123.252L65.7347 123.216L65.7369 123.184L65.7384 123.157L65.7395 123.135L65.7401 123.117L65.7405 123.104L65.7407 123.096L65.7407 123.093L65.7407 123.094L65.7408 123.1L65.741 123.11L65.7415 123.126L65.7424 123.146L65.7437 123.171L65.7455 123.2L65.748 123.234L65.7512 123.273L65.7552 123.316L65.7602 123.364L65.7661 123.416L65.7731 123.473L65.7813 123.535L65.7908 123.6L65.8015 123.671L65.8138 123.745L65.8275 123.824L65.8428 123.907L65.8598 123.994L65.8785 124.085L65.8991 124.18L65.9215 124.279L65.946 124.382L65.9724 124.489L66.001 124.6L66.0317 124.714L66.0647 124.832L66.1 124.954L66.1376 125.078L66.1776 125.207L66.2201 125.338L66.2651 125.473L66.3127 125.611L66.3629 125.751L66.4158 125.895L66.4713 126.041L66.5296 126.19L66.5907 126.342L66.6546 126.496L66.7213 126.653L66.7908 126.812L66.8633 126.973L66.9386 127.136L67.0169 127.301L67.0981 127.468L67.1823 127.637L67.2694 127.808L67.3595 127.98L67.4526 128.153L67.5486 128.328L67.6476 128.503L67.7495 128.68L67.8544 128.858L67.9623 129.037L68.073 129.217L68.1866 129.397L68.3032 129.578L68.4225 129.759L68.5447 129.94L68.6697 130.122L68.7974 130.304L68.9279 130.485L69.061 130.667L69.1968 130.848L69.3351 131.029L69.476 131.21L69.6194 131.39L69.7652 131.569L69.9134 131.748L70.0639 131.926L70.2166 132.102L70.3715 132.278L70.5286 132.453L70.6876 132.626L70.8487 132.798L71.0116 132.968L71.1764 133.138L71.3429 133.305L71.511 133.471L71.6807 133.635L71.8519 133.797L72.0244 133.957L72.1983 134.115L72.3734 134.271L72.5496 134.425L72.7268 134.577L72.9049 134.726L73.0838 134.873L73.2635 135.018L73.4437 135.161L73.6245 135.3L73.8057 135.437L73.9871 135.572L74.1688 135.704L74.3506 135.833L74.5323 135.96L74.7139 136.084L74.8952 136.205L75.0762 136.323L75.2567 136.438L75.4367 136.55L75.6159 136.66L75.7944 136.766L75.9719 136.87L76.1484 136.97L76.3238 137.068L76.4979 137.163L76.6707 137.255L76.8419 137.343L77.0116 137.429L77.1796 137.512L77.3458 137.592L77.5101 137.669L77.6724 137.743L77.8325 137.814L77.9904 137.882L78.146 137.948L78.2991 138.011L78.4497 138.07L78.5977 138.127L78.7429 138.182L78.8852 138.234L79.0247 138.283L79.161 138.329L79.2943 138.373L79.4244 138.414L79.5511 138.453L79.6745 138.49L79.7944 138.524L79.9107 138.556L80.0234 138.586L80.1324 138.613L80.2376 138.639L80.339 138.663L80.4364 138.684L80.5298 138.704L80.6192 138.722L80.7045 138.738L80.7855 138.753L80.8624 138.766L80.9349 138.777L81.0031 138.787L81.0669 138.796L81.1263 138.804L81.1812 138.811L81.2316 138.816L81.2774 138.821L81.3187 138.824L81.3554 138.827L81.3874 138.829L81.4147 138.831L81.4374 138.832L81.4554 138.833L81.4687 138.833L81.4773 138.833L81.4814 138.833Z" fill="#ECA51B"/>
<path fill-rule="evenodd" clip-rule="evenodd" d="M81.4814 138.833L81.4791 138.833L81.472 138.833L81.4602 138.834L81.4437 138.834L81.4225 138.835L81.3966 138.837L81.3661 138.839L81.3309 138.841L81.2911 138.845L81.2467 138.849L81.1977 138.854L81.1443 138.86L81.0863 138.867L81.0239 138.876L80.9571 138.886L80.8859 138.897L80.8105 138.909L80.7307 138.924L80.6468 138.939L80.5588 138.957L80.4666 138.976L80.3705 138.997L80.2703 139.02L80.1664 139.045L80.0586 139.072L79.947 139.101L79.8318 139.132L79.7131 139.165L79.5908 139.201L79.4651 139.239L79.3361 139.28L79.2038 139.323L79.0684 139.369L78.93 139.417L78.7885 139.468L78.6442 139.521L78.4971 139.578L78.3474 139.636L78.1951 139.698L78.0403 139.763L77.8831 139.83L77.7236 139.9L77.562 139.974L77.3984 140.05L77.2328 140.129L77.0653 140.21L76.8962 140.295L76.7254 140.383L76.5531 140.474L76.3794 140.568L76.2044 140.664L76.0283 140.764L75.851 140.867L75.6729 140.972L75.4939 141.081L75.3141 141.192L75.1338 141.307L74.9529 141.424L74.7717 141.544L74.5901 141.667L74.4084 141.792L74.2267 141.921L74.045 142.052L73.8634 142.186L73.6822 142.322L73.5012 142.461L73.3208 142.603L73.141 142.747L72.9618 142.893L72.7834 143.042L72.6059 143.193L72.4294 143.346L72.2539 143.501L72.0797 143.659L71.9067 143.818L71.7351 143.98L71.5649 144.143L71.3962 144.309L71.2292 144.475L71.0639 144.644L70.9004 144.814L70.7387 144.985L70.579 145.158L70.4213 145.333L70.2657 145.508L70.1123 145.684L69.9611 145.862L69.8122 146.04L69.6656 146.219L69.5214 146.399L69.3798 146.579L69.2406 146.76L69.104 146.942L68.97 147.123L68.8387 147.305L68.7101 147.486L68.5842 147.668L68.4611 147.85L68.3409 148.031L68.2234 148.212L68.1089 148.392L67.9972 148.572L67.8885 148.751L67.7826 148.929L67.6797 149.107L67.5798 149.283L67.4828 149.458L67.3888 149.632L67.2978 149.804L67.2097 149.975L67.1246 150.144L67.0425 150.312L66.9632 150.478L66.887 150.642L66.8136 150.803L66.7431 150.963L66.6755 151.12L66.6107 151.275L66.5488 151.428L66.4896 151.578L66.4332 151.725L66.3795 151.87L66.3284 152.011L66.28 152.15L66.2342 152.286L66.1909 152.418L66.1501 152.547L66.1117 152.673L66.0757 152.796L66.042 152.915L66.0105 153.031L65.9813 153.142L65.9542 153.25L65.9291 153.355L65.906 153.455L65.8849 153.552L65.8656 153.644L65.848 153.732L65.8322 153.817L65.818 153.897L65.8053 153.973L65.794 154.044L65.7842 154.111L65.7756 154.174L65.7682 154.232L65.762 154.286L65.7567 154.335L65.7524 154.38L65.749 154.42L65.7463 154.456L65.7442 154.487L65.7427 154.513L65.7417 154.535L65.7411 154.552L65.7408 154.564L65.7407 154.571L65.7407 154.574L65.7407 154.572L65.7406 154.565L65.7403 154.554L65.7397 154.538L65.7388 154.517L65.7374 154.491L65.7355 154.461L65.7329 154.426L65.7296 154.387L65.7254 154.343L65.7203 154.294L65.7142 154.241L65.707 154.184L65.6986 154.122L65.689 154.055L65.678 153.984L65.6655 153.909L65.6515 153.83L65.636 153.746L65.6187 153.658L65.5997 153.567L65.5788 153.471L65.5561 153.371L65.5313 153.267L65.5045 153.16L65.4756 153.049L65.4445 152.934L65.4112 152.815L65.3756 152.693L65.3376 152.568L65.2971 152.439L65.2542 152.307L65.2088 152.172L65.1608 152.034L65.1102 151.892L65.0569 151.748L65.0009 151.601L64.9422 151.452L64.8807 151.3L64.8164 151.145L64.7492 150.988L64.6792 150.829L64.6063 150.668L64.5305 150.504L64.4517 150.339L64.37 150.171L64.2854 150.002L64.1978 149.832L64.1072 149.659L64.0137 149.486L63.9172 149.311L63.8177 149.135L63.7153 148.958L63.61 148.78L63.5017 148.601L63.3905 148.421L63.2764 148.241L63.1594 148.06L63.0396 147.879L62.9169 147.697L62.7915 147.515L62.6633 147.334L62.5324 147.152L62.3989 146.97L62.2627 146.789L62.1239 146.608L61.9827 146.428L61.8389 146.248L61.6927 146.069L61.5442 145.89L61.3933 145.713L61.2402 145.536L61.085 145.36L60.9276 145.186L60.7682 145.013L60.6068 144.841L60.4436 144.671L60.2786 144.502L60.1118 144.335L59.9434 144.17L59.7735 144.006L59.6021 143.844L59.4293 143.684L59.2552 143.526L59.08 143.371L58.9036 143.217L58.7263 143.066L58.548 142.916L58.369 142.77L58.1892 142.625L58.0089 142.483L57.828 142.344L57.6468 142.207L57.4653 142.073L57.2836 141.942L57.1019 141.813L56.9201 141.687L56.7386 141.563L56.5573 141.443L56.3764 141.325L56.1959 141.21L56.0161 141.099L55.837 140.99L55.6586 140.883L55.4813 140.78L55.3049 140.68L55.1298 140.583L54.9558 140.489L54.7833 140.397L54.6123 140.309L54.4428 140.224L54.2751 140.141L54.1092 140.062L53.9452 139.985L53.7833 139.912L53.6235 139.841L53.466 139.773L53.3108 139.708L53.1581 139.646L53.0079 139.587L52.8604 139.53L52.7156 139.476L52.5737 139.425L52.4348 139.376L52.2989 139.33L52.1661 139.287L52.0366 139.246L51.9104 139.207L51.7875 139.171L51.6682 139.137L51.5524 139.105L51.4403 139.076L51.3319 139.049L51.2273 139.024L51.1266 139L51.0298 138.979L50.937 138.96L50.8483 138.942L50.7637 138.926L50.6833 138.912L50.6072 138.899L50.5353 138.887L50.4678 138.877L50.4047 138.869L50.346 138.861L50.2918 138.855L50.2422 138.85L50.1971 138.845L50.1565 138.842L50.1206 138.839L50.0893 138.837L50.0627 138.835L50.0407 138.834L50.0235 138.834L50.0109 138.833L50.0031 138.833L50 138.833L50.0016 138.833L50.0079 138.833L50.019 138.833L50.0347 138.832L50.0552 138.831L50.0803 138.83L50.1101 138.828L50.1446 138.826L50.1836 138.822L50.2273 138.818L50.2755 138.813L50.3283 138.807L50.3855 138.8L50.4472 138.792L50.5133 138.782L50.5838 138.771L50.6586 138.759L50.7376 138.745L50.8209 138.73L50.9083 138.713L50.9998 138.694L51.0953 138.673L51.1948 138.65L51.2982 138.626L51.4054 138.599L51.5163 138.571L51.6309 138.54L51.7491 138.506L51.8709 138.471L51.996 138.433L52.1245 138.393L52.2562 138.35L52.3912 138.305L52.5291 138.257L52.6701 138.207L52.814 138.154L52.9606 138.098L53.1099 138.039L53.2619 137.978L53.4163 137.914L53.5731 137.847L53.7322 137.777L53.8934 137.705L54.0568 137.629L54.2221 137.551L54.3892 137.469L54.5581 137.385L54.7287 137.297L54.9007 137.207L55.0742 137.114L55.249 137.018L55.425 136.918L55.602 136.816L55.7801 136.711L55.9589 136.603L56.1386 136.492L56.3188 136.378L56.4996 136.261L56.6808 136.142L56.8623 136.019L57.044 135.894L57.2257 135.766L57.4074 135.635L57.589 135.502L57.7703 135.366L57.9513 135.228L58.1318 135.087L58.3118 134.943L58.4911 134.797L58.6696 134.649L58.8473 134.498L59.0239 134.345L59.1995 134.19L59.374 134.033L59.5472 133.873L59.7191 133.712L59.8895 133.549L60.0584 133.384L60.2257 133.218L60.3912 133.049L60.5551 132.88L60.717 132.708L60.877 132.536L61.0351 132.362L61.191 132.187L61.3448 132.01L61.4963 131.833L61.6456 131.655L61.7926 131.476L61.9371 131.296L62.0792 131.116L62.2188 130.935L62.3558 130.754L62.4902 130.572L62.6219 130.391L62.751 130.209L62.8773 130.027L63.0008 129.846L63.1215 129.664L63.2394 129.483L63.3544 129.303L63.4666 129.123L63.5758 128.944L63.6821 128.765L63.7854 128.588L63.8858 128.411L63.9833 128.236L64.0778 128.062L64.1693 127.89L64.2578 127.718L64.3434 127.549L64.426 127.381L64.5057 127.215L64.5824 127.051L64.6563 126.889L64.7272 126.729L64.7953 126.571L64.8605 126.416L64.9229 126.263L64.9825 126.112L65.0394 125.965L65.0935 125.82L65.145 125.677L65.1938 125.538L65.24 125.402L65.2837 125.269L65.325 125.139L65.3637 125.013L65.4001 124.89L65.4342 124.77L65.466 124.654L65.4956 124.542L65.523 124.433L65.5484 124.328L65.5718 124.227L65.5932 124.13L65.6128 124.037L65.6306 123.948L65.6468 123.863L65.6612 123.782L65.6742 123.706L65.6856 123.633L65.6957 123.566L65.7045 123.502L65.712 123.443L65.7185 123.389L65.7239 123.338L65.7283 123.293L65.7319 123.252L65.7347 123.216L65.7369 123.184L65.7384 123.157L65.7395 123.135L65.7401 123.117L65.7405 123.104L65.7407 123.096L65.7407 123.093L65.7407 123.094L65.7408 123.1L65.741 123.11L65.7415 123.126L65.7424 123.146L65.7437 123.171L65.7455 123.2L65.748 123.234L65.7512 123.273L65.7552 123.316L65.7602 123.364L65.7661 123.416L65.7731 123.473L65.7813 123.535L65.7908 123.6L65.8015 123.671L65.8138 123.745L65.8275 123.824L65.8428 123.907L65.8598 123.994L65.8785 124.085L65.8991 124.18L65.9215 124.279L65.946 124.382L65.9724 124.489L66.001 124.6L66.0317 124.714L66.0647 124.832L66.1 124.954L66.1376 125.078L66.1776 125.207L66.2201 125.338L66.2651 125.473L66.3127 125.611L66.3629 125.751L66.4158 125.895L66.4713 126.041L66.5296 126.19L66.5907 126.342L66.6546 126.496L66.7213 126.653L66.7908 126.812L66.8633 126.973L66.9386 127.136L67.0169 127.301L67.0981 127.468L67.1823 127.637L67.2694 127.808L67.3595 127.98L67.4526 128.153L67.5486 128.328L67.6476 128.503L67.7495 128.68L67.8544 128.858L67.9623 129.037L68.073 129.217L68.1866 129.397L68.3032 129.578L68.4225 129.759L68.5447 129.94L68.6697 130.122L68.7974 130.304L68.9279 130.485L69.061 130.667L69.1968 130.848L69.3351 131.029L69.476 131.21L69.6194 131.39L69.7652 131.569L69.9134 131.748L70.0639 131.926L70.2166 132.102L70.3715 132.278L70.5286 132.453L70.6876 132.626L70.8487 132.798L71.0116 132.968L71.1764 133.138L71.3429 133.305L71.511 133.471L71.6807 133.635L71.8519 133.797L72.0244 133.957L72.1983 134.115L72.3734 134.271L72.5496 134.425L72.7268 134.577L72.9049 134.726L73.0838 134.873L73.2635 135.018L73.4437 135.161L73.6245 135.3L73.8057 135.437L73.9871 135.572L74.1688 135.704L74.3506 135.833L74.5323 135.96L74.7139 136.084L74.8952 136.205L75.0762 136.323L75.2567 136.438L75.4367 136.55L75.6159 136.66L75.7944 136.766L75.9719 136.87L76.1484 136.97L76.3238 137.068L76.4979 137.163L76.6707 137.255L76.8419 137.343L77.0116 137.429L77.1796 137.512L77.3458 137.592L77.5101 137.669L77.6724 137.743L77.8325 137.814L77.9904 137.882L78.146 137.948L78.2991 138.011L78.4497 138.07L78.5977 138.127L78.7429 138.182L78.8852 138.234L79.0247 138.283L79.161 138.329L79.2943 138.373L79.4244 138.414L79.5511 138.453L79.6745 138.49L79.7944 138.524L79.9107 138.556L80.0234 138.586L80.1324 138.613L80.2376 138.639L80.339 138.663L80.4364 138.684L80.5298 138.704L80.6192 138.722L80.7045 138.738L80.7855 138.753L80.8624 138.766L80.9349 138.777L81.0031 138.787L81.0669 138.796L81.1263 138.804L81.1812 138.811L81.2316 138.816L81.2774 138.821L81.3187 138.824L81.3554 138.827L81.3874 138.829L81.4147 138.831L81.4374 138.832L81.4554 138.833L81.4687 138.833L81.4773 138.833L81.4814 138.833Z" stroke="black" stroke-width="0.944444"/>
</g>
<path fill-rule="evenodd" clip-rule="evenodd" d="M242.352 111.759L242.349 111.759L242.342 111.759L242.331 111.76L242.314 111.76L242.293 111.761L242.267 111.763L242.236 111.765L242.201 111.767L242.161 111.771L242.117 111.775L242.068 111.78L242.015 111.786L241.957 111.793L241.894 111.802L241.827 111.812L241.756 111.823L241.681 111.835L241.601 111.849L241.517 111.865L241.429 111.883L241.337 111.902L241.241 111.923L241.141 111.946L241.037 111.971L240.929 111.997L240.817 112.027L240.702 112.058L240.583 112.091L240.461 112.127L240.336 112.165L240.206 112.206L240.074 112.249L239.939 112.295L239.8 112.343L239.659 112.394L239.515 112.447L239.368 112.503L239.218 112.562L239.065 112.624L238.911 112.689L238.753 112.756L238.594 112.826L238.432 112.899L238.269 112.976L238.103 113.054L237.936 113.136L237.767 113.221L237.596 113.309L237.423 113.4L237.25 113.494L237.075 113.59L236.899 113.69L236.721 113.793L236.543 113.898L236.364 114.007L236.185 114.118L236.004 114.233L235.823 114.35L235.642 114.47L235.461 114.593L235.279 114.718L235.097 114.847L234.915 114.978L234.734 115.112L234.553 115.248L234.372 115.387L234.191 115.529L234.011 115.672L233.832 115.819L233.654 115.968L233.476 116.119L233.3 116.272L233.124 116.427L232.95 116.585L232.777 116.744L232.605 116.906L232.435 117.069L232.267 117.234L232.1 117.401L231.934 117.57L231.771 117.74L231.609 117.911L231.449 118.084L231.292 118.258L231.136 118.434L230.983 118.61L230.831 118.788L230.683 118.966L230.536 119.145L230.392 119.325L230.25 119.505L230.111 119.686L229.974 119.867L229.84 120.049L229.709 120.231L229.58 120.412L229.455 120.594L229.332 120.776L229.211 120.957L229.094 121.138L228.979 121.318L228.868 121.498L228.759 121.677L228.653 121.855L228.55 122.033L228.45 122.209L228.353 122.384L228.259 122.558L228.168 122.73L228.08 122.901L227.995 123.07L227.913 123.238L227.834 123.404L227.757 123.568L227.684 123.729L227.613 123.889L227.546 124.046L227.481 124.201L227.419 124.354L227.36 124.504L227.304 124.651L227.25 124.796L227.199 124.937L227.15 125.076L227.105 125.212L227.061 125.344L227.02 125.473L226.982 125.599L226.946 125.722L226.912 125.841L226.881 125.956L226.852 126.068L226.825 126.176L226.799 126.281L226.776 126.381L226.755 126.478L226.736 126.57L226.718 126.658L226.703 126.743L226.688 126.823L226.676 126.899L226.664 126.97L226.655 127.037L226.646 127.1L226.639 127.158L226.632 127.212L226.627 127.261L226.623 127.306L226.619 127.346L226.617 127.382L226.615 127.413L226.613 127.439L226.612 127.461L226.612 127.477L226.611 127.49L226.611 127.497L226.611 127.5L226.611 127.498L226.611 127.491L226.611 127.48L226.61 127.464L226.609 127.443L226.608 127.417L226.606 127.387L226.603 127.352L226.6 127.313L226.596 127.269L226.591 127.22L226.585 127.167L226.577 127.11L226.569 127.047L226.559 126.981L226.548 126.91L226.536 126.835L226.522 126.756L226.506 126.672L226.489 126.584L226.47 126.493L226.449 126.397L226.426 126.297L226.402 126.193L226.375 126.086L226.346 125.974L226.315 125.86L226.282 125.741L226.246 125.619L226.208 125.494L226.168 125.365L226.125 125.233L226.079 125.098L226.031 124.96L225.981 124.818L225.927 124.674L225.871 124.527L225.813 124.378L225.751 124.226L225.687 124.071L225.62 123.914L225.55 123.755L225.477 123.593L225.401 123.43L225.322 123.264L225.24 123.097L225.156 122.928L225.068 122.757L224.978 122.585L224.884 122.412L224.788 122.237L224.688 122.061L224.586 121.884L224.48 121.706L224.372 121.527L224.261 121.347L224.147 121.167L224.03 120.986L223.91 120.805L223.787 120.623L223.662 120.441L223.534 120.26L223.403 120.078L223.269 119.896L223.133 119.715L222.994 119.534L222.853 119.354L222.709 119.174L222.563 118.994L222.415 118.816L222.264 118.638L222.111 118.462L221.955 118.286L221.798 118.112L221.639 117.939L221.477 117.767L221.314 117.597L221.149 117.428L220.982 117.261L220.814 117.095L220.644 116.932L220.472 116.77L220.3 116.61L220.126 116.452L219.95 116.296L219.774 116.143L219.597 115.991L219.418 115.842L219.239 115.696L219.06 115.551L218.879 115.409L218.698 115.27L218.517 115.133L218.336 114.999L218.154 114.868L217.972 114.739L217.791 114.613L217.609 114.489L217.428 114.369L217.247 114.251L217.066 114.136L216.886 114.024L216.707 113.915L216.529 113.809L216.352 113.706L216.175 113.606L216 113.509L215.826 113.415L215.654 113.323L215.483 113.235L215.313 113.15L215.146 113.067L214.98 112.988L214.816 112.911L214.654 112.838L214.494 112.767L214.336 112.699L214.181 112.634L214.028 112.572L213.878 112.513L213.731 112.456L213.586 112.402L213.444 112.351L213.305 112.302L213.169 112.256L213.037 112.213L212.907 112.172L212.781 112.133L212.658 112.097L212.539 112.063L212.423 112.031L212.311 112.002L212.202 111.975L212.098 111.949L211.997 111.926L211.9 111.905L211.807 111.885L211.719 111.868L211.634 111.852L211.554 111.837L211.478 111.825L211.406 111.813L211.338 111.803L211.275 111.795L211.216 111.787L211.162 111.781L211.113 111.776L211.067 111.771L211.027 111.768L210.991 111.765L210.96 111.763L210.933 111.761L210.911 111.76L210.894 111.76L210.881 111.759L210.874 111.759L210.87 111.759L210.872 111.759L210.878 111.759L210.889 111.759L210.905 111.758L210.926 111.757L210.951 111.756L210.981 111.754L211.015 111.752L211.054 111.748L211.098 111.744L211.146 111.739L211.199 111.733L211.256 111.726L211.318 111.718L211.384 111.708L211.454 111.697L211.529 111.685L211.608 111.671L211.691 111.656L211.779 111.639L211.87 111.62L211.966 111.599L212.065 111.576L212.169 111.552L212.276 111.525L212.387 111.496L212.501 111.466L212.62 111.432L212.741 111.397L212.866 111.359L212.995 111.319L213.127 111.276L213.262 111.231L213.4 111.183L213.541 111.133L213.684 111.08L213.831 111.024L213.98 110.965L214.132 110.904L214.287 110.84L214.443 110.773L214.603 110.703L214.764 110.631L214.927 110.555L215.092 110.477L215.26 110.395L215.429 110.311L215.599 110.223L215.771 110.133L215.945 110.04L216.119 109.943L216.295 109.844L216.472 109.742L216.65 109.637L216.829 109.529L217.009 109.418L217.189 109.304L217.37 109.187L217.551 109.068L217.733 108.945L217.914 108.82L218.096 108.692L218.278 108.561L218.459 108.428L218.641 108.292L218.822 108.154L219.002 108.012L219.182 107.869L219.361 107.723L219.54 107.575L219.718 107.424L219.894 107.271L220.07 107.116L220.244 106.959L220.418 106.799L220.589 106.638L220.76 106.475L220.929 106.31L221.096 106.144L221.262 105.975L221.425 105.806L221.587 105.634L221.747 105.462L221.905 105.288L222.061 105.112L222.215 104.936L222.367 104.759L222.516 104.581L222.663 104.402L222.808 104.222L222.95 104.042L223.089 103.861L223.226 103.68L223.361 103.498L223.492 103.317L223.621 103.135L223.748 102.953L223.871 102.771L223.992 102.59L224.11 102.409L224.225 102.229L224.337 102.049L224.446 101.87L224.552 101.691L224.656 101.514L224.756 101.337L224.854 101.162L224.948 100.988L225.04 100.815L225.128 100.644L225.214 100.475L225.296 100.307L225.376 100.141L225.453 99.9767L225.527 99.8146L225.598 99.6546L225.666 99.4969L225.731 99.3415L225.793 99.1886L225.853 99.0382L225.91 98.8905L225.964 98.7455L226.015 98.6034L226.064 98.4642L226.11 98.328L226.154 98.195L226.195 98.0652L226.234 97.9387L226.271 97.8156L226.305 97.696L226.336 97.58L226.366 97.4676L226.393 97.3589L226.419 97.2539L226.442 97.1529L226.464 97.0558L226.483 96.9627L226.501 96.8736L226.517 96.7887L226.532 96.708L226.545 96.6315L226.556 96.5593L226.566 96.4915L226.575 96.428L226.582 96.369L226.589 96.3144L226.594 96.2644L226.599 96.2189L226.602 96.178L226.605 96.1417L226.607 96.1101L226.609 96.0831L226.61 96.0608L226.611 96.0431L226.611 96.0302L226.611 96.022L226.611 96.0185L226.611 96.0197L226.611 96.0257L226.611 96.0364L226.612 96.0518L226.613 96.0718L226.614 96.0966L226.616 96.126L226.618 96.1601L226.622 96.1988L226.626 96.2421L226.631 96.29L226.637 96.3424L226.644 96.3992L226.652 96.4606L226.661 96.5263L226.672 96.5965L226.684 96.6709L226.698 96.7496L226.713 96.8326L226.73 96.9196L226.749 97.0108L226.769 97.106L226.792 97.2052L226.816 97.3083L226.843 97.4151L226.871 97.5258L226.902 97.6401L226.935 97.758L226.97 97.8795L227.008 98.0044L227.048 98.1326L227.091 98.2641L227.136 98.3987L227.183 98.5365L227.233 98.6772L227.286 98.8208L227.342 98.9673L227.4 99.1164L227.461 99.2681L227.525 99.4223L227.592 99.579L227.661 99.7379L227.734 99.899L227.809 100.062L227.887 100.227L227.969 100.394L228.053 100.563L228.14 100.733L228.23 100.905L228.323 101.079L228.419 101.253L228.518 101.429L228.62 101.606L228.725 101.784L228.833 101.963L228.943 102.143L229.057 102.323L229.174 102.504L229.293 102.685L229.415 102.866L229.54 103.048L229.668 103.23L229.798 103.411L229.931 103.593L230.067 103.774L230.206 103.955L230.346 104.136L230.49 104.316L230.636 104.495L230.784 104.674L230.934 104.852L231.087 105.028L231.242 105.204L231.399 105.379L231.558 105.552L231.719 105.724L231.882 105.894L232.047 106.063L232.213 106.231L232.381 106.397L232.551 106.561L232.722 106.723L232.895 106.883L233.069 107.041L233.244 107.197L233.42 107.351L233.597 107.503L233.775 107.652L233.954 107.799L234.134 107.944L234.314 108.086L234.495 108.226L234.676 108.363L234.858 108.498L235.039 108.63L235.221 108.759L235.403 108.886L235.584 109.01L235.766 109.13L235.947 109.249L236.127 109.364L236.307 109.476L236.486 109.586L236.665 109.692L236.842 109.796L237.019 109.896L237.194 109.994L237.368 110.089L237.541 110.181L237.712 110.269L237.882 110.355L238.05 110.438L238.216 110.518L238.381 110.595L238.543 110.669L238.703 110.74L238.861 110.808L239.016 110.874L239.17 110.936L239.32 110.996L239.468 111.053L239.613 111.108L239.756 111.159L239.895 111.208L240.031 111.255L240.165 111.299L240.295 111.34L240.422 111.379L240.545 111.416L240.665 111.45L240.781 111.482L240.894 111.512L241.003 111.539L241.108 111.565L241.209 111.588L241.307 111.61L241.4 111.63L241.49 111.648L241.575 111.664L241.656 111.679L241.733 111.692L241.805 111.703L241.873 111.713L241.937 111.722L241.997 111.73L242.052 111.736L242.102 111.742L242.148 111.746L242.189 111.75L242.226 111.753L242.258 111.755L242.285 111.757L242.308 111.758L242.326 111.759L242.339 111.759L242.348 111.759L242.352 111.759Z" fill="#A71010" stroke="black" stroke-width="0.944444"/>
<path d="M112.379 187.778V179.154C112.379 178.473 112.578 177.923 112.977 177.505C113.376 177.086 113.95 176.877 114.699 176.877C114.991 176.877 115.273 176.916 115.546 176.994C115.818 177.072 116.047 177.193 116.231 177.359L115.881 178.132C115.735 178.006 115.565 177.913 115.37 177.855C115.176 177.787 114.967 177.753 114.743 177.753C114.305 177.753 113.97 177.874 113.736 178.118C113.503 178.361 113.386 178.721 113.386 179.197V180.365L113.415 180.846V187.778H112.379ZM111.007 180.978V180.117H115.75V180.978H111.007ZM117.149 187.778V180.117H118.141V182.204L118.039 181.839C118.253 181.255 118.613 180.812 119.119 180.511C119.625 180.199 120.252 180.044 121.001 180.044V181.051C120.962 181.051 120.923 181.051 120.884 181.051C120.845 181.041 120.807 181.036 120.768 181.036C119.96 181.036 119.328 181.284 118.871 181.78C118.413 182.267 118.185 182.962 118.185 183.867V187.778H117.149ZM125.943 187.851C125.204 187.851 124.537 187.685 123.944 187.355C123.36 187.014 122.898 186.552 122.558 185.968C122.217 185.375 122.047 184.699 122.047 183.94C122.047 183.171 122.217 182.495 122.558 181.912C122.898 181.328 123.36 180.871 123.944 180.54C124.528 180.209 125.194 180.044 125.943 180.044C126.702 180.044 127.373 180.209 127.957 180.54C128.55 180.871 129.012 181.328 129.343 181.912C129.684 182.495 129.854 183.171 129.854 183.94C129.854 184.699 129.684 185.375 129.343 185.968C129.012 186.552 128.55 187.014 127.957 187.355C127.363 187.685 126.692 187.851 125.943 187.851ZM125.943 186.931C126.498 186.931 126.989 186.81 127.417 186.567C127.845 186.314 128.181 185.963 128.424 185.516C128.677 185.059 128.803 184.533 128.803 183.94C128.803 183.337 128.677 182.812 128.424 182.364C128.181 181.917 127.845 181.571 127.417 181.328C126.989 181.075 126.503 180.949 125.958 180.949C125.413 180.949 124.927 181.075 124.499 181.328C124.07 181.571 123.73 181.917 123.477 182.364C123.224 182.812 123.098 183.337 123.098 183.94C123.098 184.533 123.224 185.059 123.477 185.516C123.73 185.963 124.07 186.314 124.499 186.567C124.927 186.81 125.408 186.931 125.943 186.931ZM135.88 180.044C136.502 180.044 137.047 180.165 137.514 180.409C137.991 180.642 138.361 181.002 138.623 181.488C138.896 181.975 139.032 182.588 139.032 183.327V187.778H137.996V183.429C137.996 182.622 137.791 182.014 137.383 181.605C136.984 181.187 136.42 180.978 135.69 180.978C135.145 180.978 134.669 181.09 134.26 181.313C133.861 181.527 133.55 181.844 133.326 182.262C133.112 182.67 133.005 183.167 133.005 183.75V187.778H131.969V180.117H132.961V182.218L132.801 181.824C133.044 181.27 133.433 180.837 133.968 180.525C134.503 180.204 135.14 180.044 135.88 180.044ZM144.253 187.851C143.533 187.851 142.978 187.656 142.589 187.267C142.2 186.878 142.005 186.328 142.005 185.618V178.424H143.041V185.56C143.041 186.007 143.153 186.353 143.377 186.596C143.611 186.839 143.941 186.961 144.369 186.961C144.827 186.961 145.206 186.829 145.508 186.567L145.872 187.311C145.668 187.496 145.42 187.632 145.128 187.719C144.846 187.807 144.554 187.851 144.253 187.851ZM140.634 180.978V180.117H145.376V180.978H140.634ZM154.832 187.851C154.034 187.851 153.333 187.685 152.73 187.355C152.127 187.014 151.655 186.552 151.315 185.968C150.974 185.375 150.804 184.699 150.804 183.94C150.804 183.181 150.965 182.51 151.286 181.926C151.616 181.343 152.064 180.885 152.628 180.555C153.202 180.214 153.844 180.044 154.554 180.044C155.274 180.044 155.911 180.209 156.466 180.54C157.03 180.861 157.473 181.318 157.794 181.912C158.115 182.495 158.275 183.171 158.275 183.94C158.275 183.989 158.271 184.042 158.261 184.101C158.261 184.149 158.261 184.203 158.261 184.261H151.592V183.488H157.706L157.298 183.794C157.298 183.24 157.176 182.748 156.933 182.32C156.699 181.882 156.378 181.542 155.97 181.299C155.561 181.056 155.089 180.934 154.554 180.934C154.029 180.934 153.557 181.056 153.139 181.299C152.721 181.542 152.395 181.882 152.161 182.32C151.928 182.758 151.811 183.259 151.811 183.823V183.984C151.811 184.567 151.937 185.083 152.19 185.531C152.453 185.968 152.813 186.314 153.27 186.567C153.737 186.81 154.267 186.931 154.861 186.931C155.328 186.931 155.761 186.849 156.159 186.683C156.568 186.518 156.918 186.265 157.21 185.925L157.794 186.596C157.453 187.004 157.025 187.316 156.51 187.53C156.004 187.744 155.444 187.851 154.832 187.851ZM164.295 180.044C164.918 180.044 165.462 180.165 165.929 180.409C166.406 180.642 166.776 181.002 167.038 181.488C167.311 181.975 167.447 182.588 167.447 183.327V187.778H166.411V183.429C166.411 182.622 166.207 182.014 165.798 181.605C165.399 181.187 164.835 180.978 164.105 180.978C163.56 180.978 163.084 181.09 162.675 181.313C162.276 181.527 161.965 181.844 161.741 182.262C161.527 182.67 161.42 183.167 161.42 183.75V187.778H160.384V180.117H161.376V182.218L161.216 181.824C161.459 181.27 161.848 180.837 162.383 180.525C162.918 180.204 163.556 180.044 164.295 180.044ZM173.295 187.851C172.566 187.851 171.909 187.685 171.325 187.355C170.751 187.024 170.299 186.567 169.968 185.983C169.637 185.389 169.472 184.709 169.472 183.94C169.472 183.162 169.637 182.481 169.968 181.897C170.299 181.313 170.751 180.861 171.325 180.54C171.909 180.209 172.566 180.044 173.295 180.044C173.966 180.044 174.565 180.195 175.09 180.496C175.625 180.798 176.048 181.24 176.36 181.824C176.681 182.398 176.841 183.103 176.841 183.94C176.841 184.767 176.685 185.472 176.374 186.056C176.063 186.64 175.64 187.087 175.105 187.398C174.579 187.7 173.976 187.851 173.295 187.851ZM173.368 186.931C173.913 186.931 174.399 186.81 174.827 186.567C175.265 186.314 175.606 185.963 175.849 185.516C176.102 185.059 176.228 184.533 176.228 183.94C176.228 183.337 176.102 182.812 175.849 182.364C175.606 181.917 175.265 181.571 174.827 181.328C174.399 181.075 173.913 180.949 173.368 180.949C172.833 180.949 172.352 181.075 171.924 181.328C171.495 181.571 171.155 181.917 170.902 182.364C170.649 182.812 170.523 183.337 170.523 183.94C170.523 184.533 170.649 185.059 170.902 185.516C171.155 185.963 171.495 186.314 171.924 186.567C172.352 186.81 172.833 186.931 173.368 186.931ZM176.257 187.778V185.472L176.36 183.925L176.214 182.379V176.95H177.25V187.778H176.257ZM184.173 190.609V176.95H185.136V190.609H184.173ZM192.238 187.778V179.154C192.238 178.473 192.437 177.923 192.836 177.505C193.235 177.086 193.809 176.877 194.558 176.877C194.85 176.877 195.132 176.916 195.404 176.994C195.677 177.072 195.905 177.193 196.09 177.359L195.74 178.132C195.594 178.006 195.424 177.913 195.229 177.855C195.035 177.787 194.825 177.753 194.602 177.753C194.164 177.753 193.828 177.874 193.595 178.118C193.361 178.361 193.245 178.721 193.245 179.197V180.365L193.274 180.846V187.778H192.238ZM190.866 180.978V180.117H195.609V180.978H190.866ZM197.009 187.778V180.117H198.045V187.778H197.009ZM197.535 178.424C197.321 178.424 197.141 178.351 196.995 178.205C196.849 178.059 196.776 177.884 196.776 177.68C196.776 177.476 196.849 177.305 196.995 177.169C197.141 177.023 197.321 176.95 197.535 176.95C197.749 176.95 197.929 177.018 198.075 177.155C198.221 177.291 198.294 177.461 198.294 177.665C198.294 177.879 198.221 178.059 198.075 178.205C197.938 178.351 197.758 178.424 197.535 178.424ZM204.223 190.682C203.523 190.682 202.852 190.579 202.21 190.375C201.568 190.171 201.047 189.879 200.648 189.5L201.174 188.712C201.534 189.033 201.976 189.286 202.502 189.47C203.037 189.665 203.601 189.762 204.194 189.762C205.167 189.762 205.882 189.534 206.339 189.076C206.797 188.629 207.025 187.929 207.025 186.975V185.064L207.171 183.75L207.069 182.437V180.117H208.061V186.844C208.061 188.167 207.735 189.135 207.084 189.748C206.442 190.37 205.488 190.682 204.223 190.682ZM204.034 187.486C203.304 187.486 202.648 187.33 202.064 187.019C201.48 186.698 201.018 186.255 200.678 185.691C200.347 185.127 200.181 184.48 200.181 183.75C200.181 183.021 200.347 182.379 200.678 181.824C201.018 181.26 201.48 180.822 202.064 180.511C202.648 180.199 203.304 180.044 204.034 180.044C204.715 180.044 205.328 180.185 205.872 180.467C206.417 180.749 206.85 181.167 207.171 181.722C207.492 182.276 207.653 182.953 207.653 183.75C207.653 184.548 207.492 185.224 207.171 185.779C206.85 186.333 206.417 186.756 205.872 187.048C205.328 187.34 204.715 187.486 204.034 187.486ZM204.136 186.567C204.7 186.567 205.201 186.45 205.639 186.216C206.077 185.973 206.422 185.642 206.675 185.224C206.928 184.796 207.054 184.305 207.054 183.75C207.054 183.196 206.928 182.709 206.675 182.291C206.422 181.873 206.077 181.547 205.639 181.313C205.201 181.07 204.7 180.949 204.136 180.949C203.581 180.949 203.08 181.07 202.633 181.313C202.195 181.547 201.85 181.873 201.597 182.291C201.354 182.709 201.232 183.196 201.232 183.75C201.232 184.305 201.354 184.796 201.597 185.224C201.85 185.642 202.195 185.973 202.633 186.216C203.08 186.45 203.581 186.567 204.136 186.567ZM220.517 180.044C221.139 180.044 221.679 180.165 222.137 180.409C222.604 180.642 222.963 181.002 223.216 181.488C223.479 181.975 223.61 182.588 223.61 183.327V187.778H222.574V183.429C222.574 182.622 222.38 182.014 221.991 181.605C221.611 181.187 221.071 180.978 220.371 180.978C219.846 180.978 219.388 181.09 218.999 181.313C218.62 181.527 218.323 181.844 218.109 182.262C217.905 182.67 217.803 183.167 217.803 183.75V187.778H216.767V183.429C216.767 182.622 216.572 182.014 216.183 181.605C215.794 181.187 215.249 180.978 214.549 180.978C214.033 180.978 213.581 181.09 213.191 181.313C212.802 181.527 212.501 181.844 212.287 182.262C212.082 182.67 211.98 183.167 211.98 183.75V187.778H210.944V180.117H211.937V182.189L211.776 181.824C212.01 181.27 212.384 180.837 212.9 180.525C213.425 180.204 214.043 180.044 214.753 180.044C215.502 180.044 216.139 180.234 216.664 180.613C217.19 180.983 217.53 181.542 217.686 182.291L217.277 182.131C217.501 181.508 217.895 181.007 218.459 180.628C219.033 180.238 219.719 180.044 220.517 180.044ZM231.221 187.778V186.085L231.177 185.808V182.977C231.177 182.325 230.992 181.824 230.623 181.474C230.263 181.124 229.723 180.949 229.003 180.949C228.507 180.949 228.035 181.031 227.587 181.197C227.14 181.362 226.761 181.581 226.449 181.853L225.982 181.08C226.371 180.749 226.838 180.496 227.383 180.321C227.928 180.136 228.502 180.044 229.105 180.044C230.097 180.044 230.861 180.292 231.396 180.788C231.941 181.274 232.213 182.019 232.213 183.021V187.778H231.221ZM228.58 187.851C228.006 187.851 227.505 187.758 227.077 187.573C226.658 187.379 226.337 187.116 226.114 186.785C225.89 186.445 225.778 186.056 225.778 185.618C225.778 185.219 225.87 184.859 226.055 184.538C226.25 184.208 226.561 183.945 226.989 183.75C227.427 183.546 228.011 183.444 228.74 183.444H231.381V184.217H228.769C228.03 184.217 227.515 184.349 227.223 184.611C226.941 184.874 226.8 185.2 226.8 185.589C226.8 186.027 226.97 186.377 227.31 186.64C227.651 186.902 228.127 187.034 228.74 187.034C229.324 187.034 229.825 186.902 230.243 186.64C230.671 186.367 230.983 185.978 231.177 185.472L231.411 186.187C231.216 186.693 230.876 187.097 230.389 187.398C229.913 187.7 229.309 187.851 228.58 187.851Z" fill="black"/>
<defs>
<filter id="filter0_d_9_79" x="48.7357" y="123.088" width="34.01" height="34.0099" filterUnits="userSpaceOnUse" color-interpolation-filters="sRGB">
<feFlood flood-opacity="0" result="BackgroundImageFix"/>
<feColorMatrix in="SourceAlpha" type="matrix" values="0 0 0 0 0 0 0 0 0 0 0 0 0 0 0 0 0 0 127 0" result="hardAlpha"/>
<feOffset dy="1.25926"/>
<feGaussianBlur stdDeviation="0.62963"/>
<feComposite in2="hardAlpha" operator="out"/>
<feColorMatrix type="matrix" values="0 0 0 0 0 0 0 0 0 0 0 0 0 0 0 0 0 0 0.25 0"/>
<feBlend mode="normal" in2="BackgroundImageFix" result="effect1_dropShadow_9_79"/>
<feBlend mode="normal" in="SourceGraphic" in2="effect1_dropShadow_9_79" result="shape"/>
</filter>
</defs>
</svg>
