<svg width="116" height="44" viewBox="0 0 116 44" fill="none" xmlns="http://www.w3.org/2000/svg">
<path d="M0 19.8C0 8.86476 8.86476 0 19.8 0H95.7C106.635 0 115.5 8.86476 115.5 19.8V24.2C115.5 35.1352 106.635 44 95.7 44H19.8C8.86477 44 0 35.1352 0 24.2V19.8Z" fill="#820000"/>
<path d="M18.3036 15.4023C18.3036 15.5467 18.2945 15.697 18.2765 15.8533H14.7859C14.8099 16.166 14.9092 16.4065 15.0835 16.5749C15.2639 16.7372 15.4834 16.8184 15.742 16.8184C16.1268 16.8184 16.3944 16.6561 16.5447 16.3314H18.1863C18.1021 16.6621 17.9488 16.9597 17.7263 17.2243C17.5098 17.4889 17.2362 17.6963 16.9055 17.8467C16.5748 17.997 16.205 18.0722 15.7961 18.0722C15.303 18.0722 14.8641 17.9669 14.4792 17.7565C14.0944 17.546 13.7937 17.2454 13.5773 16.8545C13.3608 16.4637 13.2526 16.0067 13.2526 15.4835C13.2526 14.9604 13.3578 14.5034 13.5682 14.1125C13.7847 13.7217 14.0854 13.421 14.4702 13.2106C14.855 13.0001 15.297 12.8949 15.7961 12.8949C16.2832 12.8949 16.7161 12.9971 17.0949 13.2015C17.4738 13.406 17.7684 13.6976 17.9789 14.0764C18.1953 14.4553 18.3036 14.8972 18.3036 15.4023ZM16.7251 14.9965C16.7251 14.7319 16.6349 14.5214 16.4545 14.3651C16.2741 14.2087 16.0486 14.1306 15.7781 14.1306C15.5195 14.1306 15.3 14.2057 15.1196 14.3561C14.9452 14.5064 14.837 14.7198 14.7949 14.9965H16.7251ZM25.5392 12.9129C26.1646 12.9129 26.6607 13.1023 27.0275 13.4811C27.4003 13.86 27.5867 14.3861 27.5867 15.0596V18H26.0534V15.267C26.0534 14.9423 25.9662 14.6928 25.7918 14.5184C25.6234 14.338 25.3889 14.2478 25.0882 14.2478C24.7876 14.2478 24.5501 14.338 24.3757 14.5184C24.2073 14.6928 24.1231 14.9423 24.1231 15.267V18H22.5898V15.267C22.5898 14.9423 22.5026 14.6928 22.3282 14.5184C22.1599 14.338 21.9254 14.2478 21.6247 14.2478C21.324 14.2478 21.0865 14.338 20.9121 14.5184C20.7438 14.6928 20.6596 14.9423 20.6596 15.267V18H19.1172V12.967H20.6596V13.5984C20.8159 13.3879 21.0204 13.2226 21.2729 13.1023C21.5255 12.976 21.8111 12.9129 22.1298 12.9129C22.5086 12.9129 22.8454 12.9941 23.14 13.1564C23.4407 13.3188 23.6752 13.5503 23.8435 13.851C24.0179 13.5744 24.2554 13.3489 24.5561 13.1745C24.8567 13.0001 25.1845 12.9129 25.5392 12.9129ZM34.4101 14.7529C34.7769 14.8311 35.0716 15.0145 35.2941 15.3031C35.5165 15.5857 35.6278 15.9104 35.6278 16.2772C35.6278 16.8064 35.4414 17.2273 35.0686 17.54C34.7018 17.8467 34.1877 18 33.5262 18H30.5768V11.6682H33.427C34.0704 11.6682 34.5725 11.8155 34.9333 12.1102C35.3001 12.4048 35.4835 12.8047 35.4835 13.3098C35.4835 13.6826 35.3843 13.9923 35.1858 14.2388C34.9934 14.4853 34.7348 14.6567 34.4101 14.7529ZM32.1191 14.2298H33.1293C33.3819 14.2298 33.5743 14.1757 33.7066 14.0674C33.8449 13.9532 33.9141 13.7878 33.9141 13.5713C33.9141 13.3549 33.8449 13.1895 33.7066 13.0753C33.5743 12.961 33.3819 12.9039 33.1293 12.9039H32.1191V14.2298ZM33.2556 16.7553C33.5142 16.7553 33.7126 16.6982 33.8509 16.5839C33.9952 16.4637 34.0674 16.2923 34.0674 16.0698C34.0674 15.8473 33.9922 15.6729 33.8419 15.5467C33.6976 15.4204 33.4961 15.3572 33.2376 15.3572H32.1191V16.7553H33.2556ZM39.7514 18L38.4345 15.6098H38.0647V18H36.5224V11.6682H39.111C39.6101 11.6682 40.034 11.7554 40.3828 11.9298C40.7375 12.1041 41.0021 12.3447 41.1765 12.6513C41.3509 12.952 41.4381 13.2887 41.4381 13.6615C41.4381 14.0825 41.3178 14.4583 41.0773 14.789C40.8428 15.1197 40.494 15.3542 40.031 15.4925L41.4922 18H39.7514ZM38.0647 14.5184H39.0208C39.3034 14.5184 39.5139 14.4493 39.6522 14.311C39.7965 14.1727 39.8687 13.9772 39.8687 13.7247C39.8687 13.4842 39.7965 13.2947 39.6522 13.1564C39.5139 13.0181 39.3034 12.949 39.0208 12.949H38.0647V14.5184ZM43.9486 12.9039V14.1847H46.0141V15.3753H43.9486V16.7643H46.2847V18H42.4063V11.6682H46.2847V12.9039H43.9486ZM53.23 11.6682L50.9841 18H49.0539L46.808 11.6682H48.4496L50.019 16.4486L51.5975 11.6682H53.23ZM55.417 12.9039V14.1847H57.4825V15.3753H55.417V16.7643H57.7531V18H53.8746V11.6682H57.7531V12.9039H55.417ZM63.4709 16.6921V18H62.6862C62.127 18 61.691 17.8647 61.3784 17.5941C61.0657 17.3175 60.9093 16.8695 60.9093 16.2502V14.2478H60.296V12.967H60.9093V11.7404H62.4517V12.967H63.4619V14.2478H62.4517V16.2682C62.4517 16.4186 62.4878 16.5268 62.5599 16.5929C62.6321 16.6591 62.7524 16.6921 62.9207 16.6921H63.4709ZM69.0744 15.4023C69.0744 15.5467 69.0654 15.697 69.0473 15.8533H65.5567C65.5808 16.166 65.68 16.4065 65.8544 16.5749C66.0348 16.7372 66.2542 16.8184 66.5128 16.8184C66.8976 16.8184 67.1652 16.6561 67.3156 16.3314H68.9571C68.8729 16.6621 68.7196 16.9597 68.4971 17.2243C68.2807 17.4889 68.0071 17.6963 67.6763 17.8467C67.3456 17.997 66.9758 18.0722 66.5669 18.0722C66.0738 18.0722 65.6349 17.9669 65.25 17.7565C64.8652 17.546 64.5646 17.2454 64.3481 16.8545C64.1316 16.4637 64.0234 16.0067 64.0234 15.4835C64.0234 14.9604 64.1286 14.5034 64.3391 14.1125C64.5555 13.7217 64.8562 13.421 65.241 13.2106C65.6259 13.0001 66.0678 12.8949 66.5669 12.8949C67.054 12.8949 67.4869 12.9971 67.8658 13.2015C68.2446 13.406 68.5392 13.6976 68.7497 14.0764C68.9661 14.4553 69.0744 14.8972 69.0744 15.4023ZM67.4959 14.9965C67.4959 14.7319 67.4057 14.5214 67.2254 14.3651C67.045 14.2087 66.8195 14.1306 66.5489 14.1306C66.2903 14.1306 66.0708 14.2057 65.8904 14.3561C65.7161 14.5064 65.6078 14.7198 65.5657 14.9965H67.4959ZM71.4304 13.8059C71.6108 13.5293 71.8363 13.3128 72.1069 13.1564C72.3775 12.9941 72.6781 12.9129 73.0089 12.9129V14.5455H72.5849C72.2001 14.5455 71.9115 14.6297 71.719 14.798C71.5266 14.9604 71.4304 15.249 71.4304 15.6639V18H69.8881V12.967H71.4304V13.8059ZM78.4904 15.4023C78.4904 15.5467 78.4814 15.697 78.4634 15.8533H74.9728C74.9968 16.166 75.096 16.4065 75.2704 16.5749C75.4508 16.7372 75.6703 16.8184 75.9288 16.8184C76.3137 16.8184 76.5813 16.6561 76.7316 16.3314H78.3732C78.289 16.6621 78.1356 16.9597 77.9132 17.2243C77.6967 17.4889 77.4231 17.6963 77.0924 17.8467C76.7617 17.997 76.3918 18.0722 75.983 18.0722C75.4899 18.0722 75.0509 17.9669 74.6661 17.7565C74.2812 17.546 73.9806 17.2454 73.7641 16.8545C73.5476 16.4637 73.4394 16.0067 73.4394 15.4835C73.4394 14.9604 73.5446 14.5034 73.7551 14.1125C73.9716 13.7217 74.2722 13.421 74.6571 13.2106C75.0419 13.0001 75.4839 12.8949 75.983 12.8949C76.47 12.8949 76.903 12.9971 77.2818 13.2015C77.6606 13.406 77.9553 13.6976 78.1657 14.0764C78.3822 14.4553 78.4904 14.8972 78.4904 15.4023ZM76.912 14.9965C76.912 14.7319 76.8218 14.5214 76.6414 14.3651C76.461 14.2087 76.2355 14.1306 75.9649 14.1306C75.7064 14.1306 75.4869 14.2057 75.3065 14.3561C75.1321 14.5064 75.0239 14.7198 74.9818 14.9965H76.912ZM80.0798 12.4439C79.8092 12.4439 79.5867 12.3657 79.4123 12.2094C79.244 12.047 79.1598 11.8486 79.1598 11.6141C79.1598 11.3736 79.244 11.1751 79.4123 11.0188C79.5867 10.8564 79.8092 10.7753 80.0798 10.7753C80.3444 10.7753 80.5608 10.8564 80.7292 11.0188C80.9036 11.1751 80.9908 11.3736 80.9908 11.6141C80.9908 11.8486 80.9036 12.047 80.7292 12.2094C80.5608 12.3657 80.3444 12.4439 80.0798 12.4439ZM80.8465 12.967V18H79.3041V12.967H80.8465ZM86.1666 18.0722C85.6735 18.0722 85.2285 17.9669 84.8317 17.7565C84.4408 17.546 84.1311 17.2454 83.9026 16.8545C83.6802 16.4637 83.5689 16.0067 83.5689 15.4835C83.5689 14.9664 83.6832 14.5124 83.9117 14.1215C84.1402 13.7247 84.4528 13.421 84.8497 13.2106C85.2466 13.0001 85.6915 12.8949 86.1846 12.8949C86.6777 12.8949 87.1227 13.0001 87.5195 13.2106C87.9164 13.421 88.2291 13.7247 88.4576 14.1215C88.6861 14.5124 88.8003 14.9664 88.8003 15.4835C88.8003 16.0006 88.6831 16.4576 88.4485 16.8545C88.22 17.2454 87.9044 17.546 87.5015 17.7565C87.1046 17.9669 86.6596 18.0722 86.1666 18.0722ZM86.1666 16.7372C86.4612 16.7372 86.7108 16.629 86.9152 16.4125C87.1257 16.1961 87.2309 15.8864 87.2309 15.4835C87.2309 15.0806 87.1287 14.771 86.9242 14.5545C86.7258 14.338 86.4793 14.2298 86.1846 14.2298C85.884 14.2298 85.6344 14.338 85.436 14.5545C85.2375 14.7649 85.1383 15.0746 85.1383 15.4835C85.1383 15.8864 85.2345 16.1961 85.427 16.4125C85.6254 16.629 85.8719 16.7372 86.1666 16.7372ZM15.1016 27.6796C15.2519 27.4451 15.4594 27.2557 15.7239 27.1113C15.9885 26.967 16.2982 26.8949 16.653 26.8949C17.0679 26.8949 17.4437 27.0001 17.7804 27.2106C18.1172 27.421 18.3817 27.7217 18.5742 28.1125C18.7726 28.5034 18.8718 28.9574 18.8718 29.4745C18.8718 29.9916 18.7726 30.4486 18.5742 30.8455C18.3817 31.2363 18.1172 31.54 17.7804 31.7565C17.4437 31.9669 17.0679 32.0722 16.653 32.0722C16.3042 32.0722 15.9945 32 15.7239 31.8557C15.4594 31.7114 15.2519 31.525 15.1016 31.2965V34.3992H13.5592V26.967H15.1016V27.6796ZM17.3024 29.4745C17.3024 29.0897 17.1941 28.789 16.9777 28.5725C16.7672 28.35 16.5056 28.2388 16.193 28.2388C15.8863 28.2388 15.6247 28.35 15.4082 28.5725C15.1978 28.795 15.0926 29.0987 15.0926 29.4835C15.0926 29.8684 15.1978 30.172 15.4082 30.3945C15.6247 30.617 15.8863 30.7282 16.193 30.7282C16.4996 30.7282 16.7612 30.617 16.9777 30.3945C17.1941 30.166 17.3024 29.8593 17.3024 29.4745ZM21.2233 27.8059C21.4037 27.5293 21.6292 27.3128 21.8998 27.1564C22.1704 26.9941 22.471 26.9129 22.8018 26.9129V28.5455H22.3778C21.993 28.5455 21.7044 28.6297 21.512 28.798C21.3195 28.9604 21.2233 29.249 21.2233 29.6639V32H19.681V26.967H21.2233V27.8059ZM23.2323 29.4745C23.2323 28.9574 23.3285 28.5034 23.5209 28.1125C23.7194 27.7217 23.987 27.421 24.3237 27.2106C24.6604 27.0001 25.0362 26.8949 25.4511 26.8949C25.8059 26.8949 26.1156 26.967 26.3802 27.1113C26.6508 27.2557 26.8582 27.4451 27.0025 27.6796V26.967H28.5449V32H27.0025V31.2874C26.8522 31.522 26.6417 31.7114 26.3712 31.8557C26.1066 32 25.7969 32.0722 25.4421 32.0722C25.0332 32.0722 24.6604 31.9669 24.3237 31.7565C23.987 31.54 23.7194 31.2363 23.5209 30.8455C23.3285 30.4486 23.2323 29.9916 23.2323 29.4745ZM27.0025 29.4835C27.0025 29.0987 26.8943 28.795 26.6778 28.5725C26.4674 28.35 26.2088 28.2388 25.9021 28.2388C25.5955 28.2388 25.3339 28.35 25.1174 28.5725C24.907 28.789 24.8017 29.0897 24.8017 29.4745C24.8017 29.8593 24.907 30.166 25.1174 30.3945C25.3339 30.617 25.5955 30.7282 25.9021 30.7282C26.2088 30.7282 26.4674 30.617 26.6778 30.3945C26.8943 30.172 27.0025 29.8684 27.0025 29.4835ZM31.1039 30.7282H33.2866V32H29.3811V30.7733L31.4737 28.2388H29.3992V26.967H33.2415V28.1937L31.1039 30.7282ZM38.8797 29.4023C38.8797 29.5467 38.8706 29.697 38.8526 29.8533H35.362C35.386 30.166 35.4853 30.4065 35.6596 30.5749C35.84 30.7372 36.0595 30.8184 36.3181 30.8184C36.7029 30.8184 36.9705 30.6561 37.1208 30.3314H38.7624C38.6782 30.6621 38.5249 30.9597 38.3024 31.2243C38.0859 31.4889 37.8123 31.6963 37.4816 31.8467C37.1509 31.997 36.7811 32.0722 36.3722 32.0722C35.8791 32.0722 35.4402 31.9669 35.0553 31.7565C34.6705 31.546 34.3698 31.2454 34.1534 30.8545C33.9369 30.4637 33.8287 30.0067 33.8287 29.4835C33.8287 28.9604 33.9339 28.5034 34.1443 28.1125C34.3608 27.7217 34.6615 27.421 35.0463 27.2106C35.4311 27.0001 35.8731 26.8949 36.3722 26.8949C36.8593 26.8949 37.2922 26.9971 37.671 27.2015C38.0499 27.406 38.3445 27.6976 38.555 28.0764C38.7714 28.4553 38.8797 28.8972 38.8797 29.4023ZM37.3012 28.9965C37.3012 28.7319 37.211 28.5214 37.0306 28.3651C36.8502 28.2087 36.6247 28.1306 36.3542 28.1306C36.0956 28.1306 35.8761 28.2057 35.6957 28.3561C35.5213 28.5064 35.4131 28.7198 35.371 28.9965H37.3012ZM41.2357 27.8059C41.4161 27.5293 41.6416 27.3128 41.9122 27.1564C42.1828 26.9941 42.4834 26.9129 42.8141 26.9129V28.5455H42.3902C42.0054 28.5455 41.7167 28.6297 41.5243 28.798C41.3319 28.9604 41.2357 29.249 41.2357 29.6639V32H39.6933V26.967H41.2357V27.8059ZM50.2071 29.4023C50.2071 29.5467 50.1981 29.697 50.18 29.8533H46.6894C46.7135 30.166 46.8127 30.4065 46.9871 30.5749C47.1675 30.7372 47.3869 30.8184 47.6455 30.8184C48.0303 30.8184 48.2979 30.6561 48.4483 30.3314H50.0898C50.0057 30.6621 49.8523 30.9597 49.6298 31.2243C49.4134 31.4889 49.1398 31.6963 48.809 31.8467C48.4783 31.997 48.1085 32.0722 47.6996 32.0722C47.2065 32.0722 46.7676 31.9669 46.3828 31.7565C45.9979 31.546 45.6973 31.2454 45.4808 30.8545C45.2643 30.4637 45.1561 30.0067 45.1561 29.4835C45.1561 28.9604 45.2613 28.5034 45.4718 28.1125C45.6882 27.7217 45.9889 27.421 46.3737 27.2106C46.7586 27.0001 47.2005 26.8949 47.6996 26.8949C48.1867 26.8949 48.6196 26.9971 48.9985 27.2015C49.3773 27.406 49.6719 27.6976 49.8824 28.0764C50.0989 28.4553 50.2071 28.8972 50.2071 29.4023ZM48.6286 28.9965C48.6286 28.7319 48.5385 28.5214 48.3581 28.3651C48.1777 28.2087 47.9522 28.1306 47.6816 28.1306C47.423 28.1306 47.2035 28.2057 47.0231 28.3561C46.8488 28.5064 46.7405 28.7198 46.6984 28.9965H48.6286ZM57.4428 26.9129C58.0681 26.9129 58.5642 27.1023 58.931 27.4811C59.3038 27.86 59.4902 28.3861 59.4902 29.0596V32H57.9569V29.267C57.9569 28.9423 57.8697 28.6928 57.6953 28.5184C57.5269 28.338 57.2924 28.2478 56.9918 28.2478C56.6911 28.2478 56.4536 28.338 56.2792 28.5184C56.1109 28.6928 56.0267 28.9423 56.0267 29.267V32H54.4933V29.267C54.4933 28.9423 54.4061 28.6928 54.2318 28.5184C54.0634 28.338 53.8289 28.2478 53.5282 28.2478C53.2276 28.2478 52.9901 28.338 52.8157 28.5184C52.6473 28.6928 52.5631 28.9423 52.5631 29.267V32H51.0208V26.967H52.5631V27.5984C52.7195 27.3879 52.9239 27.2226 53.1765 27.1023C53.429 26.976 53.7146 26.9129 54.0333 26.9129C54.4122 26.9129 54.7489 26.9941 55.0435 27.1564C55.3442 27.3188 55.5787 27.5503 55.7471 27.851C55.9214 27.5744 56.159 27.3489 56.4596 27.1745C56.7603 27.0001 57.088 26.9129 57.4428 26.9129ZM62.1736 29.4745C62.1736 28.9574 62.2699 28.5034 62.4623 28.1125C62.6607 27.7217 62.9283 27.421 63.265 27.2106C63.6018 27.0001 63.9776 26.8949 64.3925 26.8949C64.7232 26.8949 65.0239 26.964 65.2944 27.1023C65.571 27.2406 65.7875 27.427 65.9439 27.6615V25.3255H67.4862V32H65.9439V31.2784C65.7995 31.519 65.5921 31.7114 65.3215 31.8557C65.0569 32 64.7473 32.0722 64.3925 32.0722C63.9776 32.0722 63.6018 31.9669 63.265 31.7565C62.9283 31.54 62.6607 31.2363 62.4623 30.8455C62.2699 30.4486 62.1736 29.9916 62.1736 29.4745ZM65.9439 29.4835C65.9439 29.0987 65.8356 28.795 65.6192 28.5725C65.4087 28.35 65.1501 28.2388 64.8435 28.2388C64.5368 28.2388 64.2752 28.35 64.0588 28.5725C63.8483 28.789 63.7431 29.0897 63.7431 29.4745C63.7431 29.8593 63.8483 30.166 64.0588 30.3945C64.2752 30.617 64.5368 30.7282 64.8435 30.7282C65.1501 30.7282 65.4087 30.617 65.6192 30.3945C65.8356 30.172 65.9439 29.8684 65.9439 29.4835ZM69.3777 26.4439C69.1072 26.4439 68.8847 26.3657 68.7103 26.2094C68.5419 26.047 68.4577 25.8486 68.4577 25.6141C68.4577 25.3736 68.5419 25.1751 68.7103 25.0188C68.8847 24.8564 69.1072 24.7753 69.3777 24.7753C69.6423 24.7753 69.8588 24.8564 70.0272 25.0188C70.2015 25.1751 70.2887 25.3736 70.2887 25.6141C70.2887 25.8486 70.2015 26.047 70.0272 26.2094C69.8588 26.3657 69.6423 26.4439 69.3777 26.4439ZM70.1444 26.967V32H68.6021V26.967H70.1444ZM73.5261 30.5569L74.6175 26.967H76.259L74.4731 32H72.57L70.7841 26.967H72.4347L73.5261 30.5569ZM81.8781 26.967V32H80.3357V31.3145C80.1794 31.537 79.9659 31.7174 79.6953 31.8557C79.4307 31.988 79.1361 32.0541 78.8114 32.0541C78.4266 32.0541 78.0868 31.9699 77.7922 31.8016C77.4975 31.6272 77.269 31.3776 77.1067 31.0529C76.9443 30.7282 76.8631 30.3464 76.8631 29.9074V26.967H78.3965V29.7C78.3965 30.0367 78.4837 30.2983 78.6581 30.4847C78.8324 30.6711 79.067 30.7643 79.3616 30.7643C79.6622 30.7643 79.8998 30.6711 80.0741 30.4847C80.2485 30.2983 80.3357 30.0367 80.3357 29.7V26.967H81.8781ZM84.5283 25.3255V32H82.9859V25.3255H84.5283ZM87.5582 26.8949C87.913 26.8949 88.2227 26.967 88.4872 27.1113C88.7578 27.2557 88.9653 27.4451 89.1096 27.6796V26.967H90.652V31.991C90.652 32.454 90.5588 32.8719 90.3723 33.2447C90.192 33.6235 89.9123 33.9242 89.5335 34.1467C89.1607 34.3692 88.6947 34.4804 88.1355 34.4804C87.3898 34.4804 86.7855 34.303 86.3225 33.9482C85.8595 33.5995 85.5949 33.1245 85.5288 32.5231H87.0531C87.1012 32.7156 87.2155 32.8659 87.3959 32.9741C87.5762 33.0884 87.7987 33.1455 88.0633 33.1455C88.382 33.1455 88.6346 33.0523 88.821 32.8659C89.0134 32.6855 89.1096 32.3939 89.1096 31.991V31.2784C88.9593 31.5129 88.7518 31.7054 88.4872 31.8557C88.2227 32 87.913 32.0722 87.5582 32.0722C87.1433 32.0722 86.7675 31.9669 86.4308 31.7565C86.094 31.54 85.8264 31.2363 85.628 30.8455C85.4356 30.4486 85.3394 29.9916 85.3394 29.4745C85.3394 28.9574 85.4356 28.5034 85.628 28.1125C85.8264 27.7217 86.094 27.421 86.4308 27.2106C86.7675 27.0001 87.1433 26.8949 87.5582 26.8949ZM89.1096 29.4835C89.1096 29.0987 89.0014 28.795 88.7849 28.5725C88.5744 28.35 88.3159 28.2388 88.0092 28.2388C87.7025 28.2388 87.441 28.35 87.2245 28.5725C87.014 28.789 86.9088 29.0897 86.9088 29.4745C86.9088 29.8593 87.014 30.166 87.2245 30.3945C87.441 30.617 87.7025 30.7282 88.0092 30.7282C88.3159 30.7282 88.5744 30.617 88.7849 30.3945C89.0014 30.172 89.1096 29.8684 89.1096 29.4835ZM91.4611 29.4745C91.4611 28.9574 91.5573 28.5034 91.7497 28.1125C91.9482 27.7217 92.2158 27.421 92.5525 27.2106C92.8892 27.0001 93.265 26.8949 93.68 26.8949C94.0347 26.8949 94.3444 26.967 94.609 27.1113C94.8796 27.2557 95.087 27.4451 95.2313 27.6796V26.967H96.7737V32H95.2313V31.2874C95.081 31.522 94.8705 31.7114 94.6 31.8557C94.3354 32 94.0257 32.0722 93.6709 32.0722C93.262 32.0722 92.8892 31.9669 92.5525 31.7565C92.2158 31.54 91.9482 31.2363 91.7497 30.8455C91.5573 30.4486 91.4611 29.9916 91.4611 29.4745ZM95.2313 29.4835C95.2313 29.0987 95.1231 28.795 94.9066 28.5725C94.6962 28.35 94.4376 28.2388 94.1309 28.2388C93.8243 28.2388 93.5627 28.35 93.3462 28.5725C93.1358 28.789 93.0305 29.0897 93.0305 29.4745C93.0305 29.8593 93.1358 30.166 93.3462 30.3945C93.5627 30.617 93.8243 30.7282 94.1309 30.7282C94.4376 30.7282 94.6962 30.617 94.9066 30.3945C95.1231 30.172 95.2313 29.8684 95.2313 29.4835ZM99.4319 27.8059C99.6123 27.5293 99.8378 27.3128 100.108 27.1564C100.379 26.9941 100.68 26.9129 101.01 26.9129V28.5455H100.586C100.202 28.5455 99.9129 28.6297 99.7205 28.798C99.5281 28.9604 99.4319 29.249 99.4319 29.6639V32H97.8895V26.967H99.4319V27.8059Z" fill="white"/>
</svg>
